<svg width="41" height="41" viewBox="0 0 41 41" fill="none" xmlns="http://www.w3.org/2000/svg">
<path fill-rule="evenodd" clip-rule="evenodd" d="M12.2083 7.80404C8.76684 7.80404 5.95833 10.6153 5.95833 14.1061C5.95833 16.3233 7.25918 18.6099 9.31172 20.9851C12.6559 24.855 16.5283 28.899 20.125 32.2184C23.7217 28.899 27.5941 24.855 30.9383 20.9851C32.9908 18.6099 34.2917 16.3233 34.2917 14.1061C34.2917 10.6153 31.4832 7.80404 28.0417 7.80404C26.5547 7.80404 25.1919 8.32561 24.1179 9.20045C22.9846 10.1236 22.3889 10.7867 22.058 11.1932C21.9725 11.298 21.9005 11.391 21.8346 11.4772C21.8231 11.4922 21.8107 11.5085 21.7978 11.5255C21.7461 11.5933 21.685 11.6735 21.6325 11.7388C21.5759 11.8093 21.4479 11.9677 21.2749 12.1121C21.1007 12.2576 20.6843 12.5557 20.0737 12.5437C19.4706 12.5318 19.0698 12.2241 18.9078 12.082C18.7434 11.9378 18.621 11.7812 18.5666 11.7113C18.4801 11.6 18.434 11.537 18.3905 11.4775C18.3346 11.4009 18.283 11.3303 18.1551 11.1705C17.8332 10.7681 17.2501 10.1111 16.1321 9.20045C15.0581 8.32561 13.6953 7.80404 12.2083 7.80404ZM2.625 14.1061C2.625 8.79495 6.90532 4.4707 12.2083 4.4707C14.492 4.4707 16.592 5.27584 18.2373 6.61596C19.0642 7.2895 19.6687 7.86847 20.1203 8.35213C20.5748 7.87079 21.1826 7.29212 22.0127 6.61596C23.658 5.27584 25.758 4.4707 28.0417 4.4707C33.3447 4.4707 37.625 8.79495 37.625 14.1061C37.625 17.5785 35.6317 20.652 33.4604 23.1646C29.8652 27.3248 25.666 31.6908 21.7992 35.2052C20.8493 36.0684 19.4006 36.0684 18.4508 35.2052C14.584 31.6908 10.3847 27.3248 6.78964 23.1646C4.61833 20.652 2.625 17.5785 2.625 14.1061Z" fill="#FF7039"/>
</svg>
