<svg width="41" height="41" viewBox="0 0 41 41" fill="none" xmlns="http://www.w3.org/2000/svg">
<path fill-rule="evenodd" clip-rule="evenodd" d="M20.2487 3.63867C15.6463 3.63867 11.9154 7.36963 11.9154 11.972C11.9154 16.5744 15.6463 20.3053 20.2487 20.3053C24.8511 20.3053 28.582 16.5744 28.582 11.972C28.582 7.36963 24.8511 3.63867 20.2487 3.63867ZM15.2487 11.972C15.2487 9.21058 17.4873 6.97201 20.2487 6.97201C23.0101 6.97201 25.2487 9.21058 25.2487 11.972C25.2487 14.7334 23.0101 16.972 20.2487 16.972C17.4873 16.972 15.2487 14.7334 15.2487 11.972Z" fill="#FF7039"/>
<path d="M20.2489 21.972C11.2315 21.972 6.08203 29.6358 6.08203 36.972H9.41536C9.41536 30.9748 13.5372 25.3053 20.2489 25.3053C26.9605 25.3053 31.082 30.9748 31.082 36.972H34.4154C34.4154 29.6359 29.2663 21.972 20.2489 21.972Z" fill="#FF7039"/>
</svg>
