<svg width="64" height="65" viewBox="0 0 64 65" fill="none" xmlns="http://www.w3.org/2000/svg">
<path d="M62.2741 28.3608L60.2622 26.1954C58.9456 24.7783 58.331 22.8082 58.5959 20.8563L59.001 17.8733C59.4648 14.46 57.2449 11.2785 53.9837 10.6832L51.1336 10.1626C49.2688 9.82209 47.6588 8.60442 46.7716 6.86292L45.415 4.20164C43.8633 1.15631 40.2712 -0.0586151 37.2965 1.45511L34.6966 2.77819C32.9954 3.6439 31.006 3.6439 29.3048 2.77819L26.7049 1.45511C23.7302 -0.0586151 20.1381 1.15631 18.5864 4.20164L17.2298 6.86292C16.3426 8.60442 14.7326 9.82209 12.8678 10.1626L10.0177 10.6832C6.75655 11.279 4.5366 14.46 4.99993 17.8733L5.40506 20.8563C5.67041 22.8082 5.05538 24.7783 3.73872 26.1954L1.72683 28.3608C-0.575611 30.8383 -0.575611 34.7709 1.72683 37.2484L3.73872 39.4138C5.05538 40.8308 5.66995 42.8006 5.40506 44.7529L4.99993 47.7359C4.53614 51.1492 6.75609 54.3306 10.0177 54.926L12.8678 55.4466C14.7326 55.7871 16.3426 57.0048 17.2298 58.7463L18.5864 61.4075C20.1381 64.4529 23.7302 65.6678 26.7049 64.1541L29.3048 62.831C31.006 61.9653 32.9954 61.9653 34.6966 62.831L37.2965 64.1541C40.2712 65.6682 43.8633 64.4529 45.415 61.4075L46.7716 58.7463C47.6588 57.0048 49.2688 55.7871 51.1336 55.4466L53.9837 54.926C57.2449 54.3302 59.4648 51.1492 59.001 47.7359L58.5959 44.7529C58.3305 42.801 58.9456 40.8308 60.2622 39.4138L62.2741 37.2484C64.5761 34.7709 64.5761 30.8388 62.2741 28.3608ZM10.0755 51.6712C8.87064 51.6712 7.89402 50.6542 7.89402 49.3999C7.89402 48.1456 8.87064 47.1286 10.0755 47.1286C11.2803 47.1286 12.2569 48.1456 12.2569 49.3999C12.2569 50.6542 11.2803 51.6712 10.0755 51.6712Z" fill="#B7AD75"/>
<path d="M16.4619 35.5426V29.7031H18.5774C19.3345 29.7031 19.911 29.8406 20.306 30.116C20.7006 30.3915 20.8986 30.7911 20.8986 31.3149C20.8986 31.6174 20.8285 31.8754 20.6883 32.089C20.548 32.303 20.3418 32.4606 20.0691 32.5624C20.3766 32.6426 20.6126 32.7925 20.7772 33.0115C20.9412 33.231 21.0237 33.4982 21.0237 33.8135C21.0237 34.3855 20.8413 34.8158 20.4756 35.1027C20.1104 35.39 19.5691 35.5362 18.8519 35.5417H16.4619V35.5426ZM17.8812 32.1376H18.6214C18.9316 32.1353 19.1525 32.0789 19.2845 31.9684C19.4165 31.8585 19.483 31.6962 19.483 31.4817C19.483 31.2352 19.4115 31.0574 19.2685 30.9488C19.1255 30.8401 18.895 30.7861 18.5769 30.7861H17.8812V32.1376ZM17.8812 33.0601V34.4602H18.8116C19.0677 34.4602 19.2644 34.402 19.4018 34.2856C19.5393 34.1691 19.6081 34.0055 19.6081 33.7943C19.6081 33.3076 19.3643 33.0628 18.8757 33.0601H17.8812Z" fill="white"/>
<path d="M23.992 33.4771H23.2235V35.5426H21.8037V29.7031H24.1213C24.8197 29.7031 25.366 29.8567 25.7592 30.1637C26.1529 30.4708 26.3499 30.9048 26.3499 31.4657C26.3499 31.8717 26.267 32.2081 26.1011 32.4753C25.9356 32.7425 25.6758 32.9588 25.3225 33.1242L26.5525 35.4817V35.5422H25.0319L23.992 33.4771ZM23.2239 32.3942H24.1217C24.3917 32.3942 24.5942 32.3241 24.7303 32.1834C24.8669 32.0427 24.9347 31.8465 24.9347 31.5945C24.9347 31.3424 24.866 31.1449 24.7285 31.0015C24.591 30.858 24.3889 30.7865 24.1217 30.7865H23.2239V32.3942Z" fill="white"/>
<path d="M32.1951 32.7435C32.1951 33.3132 32.0887 33.8168 31.8756 34.2554C31.6625 34.6936 31.36 35.0309 30.9678 35.2678C30.5759 35.5047 30.1286 35.6225 29.6268 35.6225C29.1254 35.6225 28.6809 35.5084 28.2923 35.2797C27.9036 35.051 27.6012 34.7243 27.3844 34.299C27.1676 33.8737 27.0535 33.3861 27.043 32.8352V32.5066C27.043 31.9347 27.1484 31.4296 27.3601 30.9929C27.5718 30.5557 27.8752 30.2184 28.2698 29.9801C28.6649 29.7422 29.1149 29.623 29.6186 29.623C30.1176 29.623 30.5626 29.7408 30.9535 29.9764C31.3445 30.2115 31.6483 30.5465 31.8651 30.981C32.0819 31.4154 32.1923 31.9136 32.1951 32.475V32.7435ZM30.751 32.4988C30.751 31.9186 30.6529 31.4782 30.4572 31.1776C30.262 30.8769 29.9824 30.7266 29.6181 30.7266C28.9064 30.7266 28.5301 31.2559 28.4898 32.3146L28.4857 32.744C28.4857 33.3164 28.5814 33.7559 28.7726 34.063C28.9641 34.3705 29.2487 34.5244 29.6259 34.5244C29.9847 34.5244 30.2611 34.3732 30.4554 34.0712C30.6497 33.7692 30.7482 33.3352 30.751 32.7678V32.4988Z" fill="white"/>
<path d="M37.8451 35.5426H36.4336L34.3465 31.9093V35.5426H32.9268V29.7031H34.3465L36.4295 33.3369V29.7031H37.8451V35.5426Z" fill="white"/>
<path d="M40.3376 34.4597H43.1529V35.5422H38.5658V34.8002L41.3729 30.7902H38.5498V29.7031H43.124V30.4249L40.3376 34.4597Z" fill="white"/>
<path d="M47.4455 33.0638H45.2127V34.4597H47.8497V35.5422H43.793V29.7031H47.8575V30.7902H45.2127V32.0216H47.4455V33.0638Z" fill="white"/>
<path d="M15.8446 19.0481L15.2602 19.8326L17.3872 21.4174L16.9174 22.0476L14.7909 20.4628L14.2167 21.2327L13.7305 20.8702L15.3579 18.6855L15.8446 19.0481Z" fill="white"/>
<path d="M18.8125 18.9301L18.0541 19.6946L18.3533 20.2569L17.7621 20.8522L16.291 17.7083L16.8121 17.1836L19.9729 18.6254L19.3785 19.2244L18.8125 18.9301ZM17.7557 19.1332L18.2493 18.6359L17.1993 18.0892L17.7557 19.1332Z" fill="white"/>
<path d="M21.9997 16.6765C21.9805 16.8561 21.9007 17.0472 21.7605 17.2502C21.6198 17.4528 21.4374 17.6361 21.2128 17.7984C20.8668 18.049 20.514 18.143 20.1537 18.0807C19.794 18.0193 19.4704 17.8043 19.1831 17.4381L19.0158 17.2108C18.8279 16.951 18.7097 16.6902 18.6611 16.4304C18.613 16.1696 18.6359 15.9253 18.7317 15.6962C18.827 15.468 18.9874 15.2727 19.212 15.11C19.541 14.8722 19.8508 14.7622 20.1414 14.7814C20.4324 14.8002 20.7009 14.9478 20.9475 15.2251L20.3343 15.6687C20.206 15.5367 20.0823 15.4657 19.9645 15.4551C19.8467 15.4455 19.7207 15.4877 19.5882 15.5839C19.4278 15.6994 19.3536 15.8566 19.365 16.0541C19.3756 16.253 19.4714 16.4785 19.6528 16.731L19.7683 16.891C19.9585 17.154 20.1469 17.3199 20.3329 17.3868C20.5185 17.4542 20.7083 17.4175 20.9012 17.2777C21.0671 17.1581 21.1638 17.0321 21.1918 16.8997L20.8953 16.4895L20.4525 16.8094L20.1368 16.3726L21.2156 15.5922L21.9997 16.6765Z" fill="white"/>
<path d="M22.9443 15.9534L24.157 15.32L24.4365 15.8558L22.5278 16.853L21.0195 13.963L21.7161 13.5996L22.9443 15.9534Z" fill="white"/>
<path d="M25.4625 15.4679L24.7352 15.759L23.5244 12.7324L24.2522 12.4414L25.4625 15.4679Z" fill="white"/>
<path d="M28.4932 14.567L27.7389 14.77L26.0964 13.1128L26.6234 15.0702L25.865 15.2746L25.0176 12.128L25.776 11.9236L27.4163 13.5821L26.8892 11.6239L27.6454 11.4199L28.4932 14.567Z" fill="white"/>
<path d="M30.7295 12.9125L29.5018 13.0537L29.5902 13.8272L31.0403 13.6609L31.109 14.2612L28.8785 14.5179L28.5068 11.2805L30.7415 11.0234L30.8107 11.6256L29.356 11.7929L29.4344 12.4753L30.6622 12.3341L30.7295 12.9125Z" fill="white"/>
<path d="M34.3084 13.8028L33.2365 13.7029L32.9927 14.2913L32.1572 14.2134L33.6508 11.0801L34.3863 11.1479L35.2814 14.5053L34.4413 14.4265L34.3084 13.8028ZM33.4803 13.1163L34.1778 13.1818L33.9336 12.0242L33.4803 13.1163Z" fill="white"/>
<path d="M38.0484 13.9999L38.959 12.1319L39.7092 12.3422L38.1652 15.2941L37.3802 15.0745L37.4608 13.1681L36.5484 14.8417L35.7656 14.6227L35.976 11.2969L36.728 11.5072L36.5374 13.5764L37.5195 11.7286L38.1616 11.9091L38.0484 13.9999Z" fill="white"/>
<path d="M40.8119 15.8185L39.8426 15.3496L39.4086 15.8153L38.6533 15.4495L41.1496 13.0371L41.8141 13.3588L41.4773 16.8175L40.7184 16.4495L40.8119 15.8185ZM40.2766 14.8849L40.9072 15.1906L41.0832 14.0201L40.2766 14.8849Z" fill="white"/>
<path d="M43.2176 16.6433L42.8688 16.4004L42.2098 17.3464L41.5654 16.8977L43.4275 14.2227L44.4801 14.9564C44.7973 15.1768 44.9962 15.4202 45.0768 15.6855C45.158 15.9504 45.1089 16.2112 44.9302 16.4683C44.8009 16.6543 44.6557 16.7827 44.4953 16.8523C44.3349 16.922 44.1479 16.9389 43.9348 16.9032L43.7409 18.3715L43.7217 18.3995L43.0306 17.9183L43.2176 16.6433ZM43.2144 15.9046L43.6218 16.1887C43.7446 16.274 43.8592 16.3056 43.9659 16.284C44.0727 16.263 44.1662 16.1947 44.2464 16.0792C44.3266 15.9637 44.3582 15.8514 44.3417 15.7423C44.3252 15.6333 44.256 15.537 44.1351 15.4522L43.7272 15.1676L43.2144 15.9046Z" fill="white"/>
<path d="M43.9053 18.563L46.1559 16.2051L46.9149 16.9296C47.1234 17.129 47.2654 17.3549 47.3415 17.6079C47.4176 17.8609 47.4203 18.1175 47.3498 18.3797C47.2787 18.6409 47.1412 18.8792 46.9387 19.0941L46.8351 19.2023C46.6289 19.4181 46.3988 19.568 46.1445 19.6519C45.8892 19.7357 45.6335 19.7472 45.3755 19.6858C45.1179 19.6239 44.886 19.4965 44.6807 19.3027L43.9053 18.563ZM46.3053 17.1863L44.8911 18.6679L45.0886 18.8567C45.2513 19.0121 45.4318 19.0735 45.6303 19.041C45.8287 19.0084 46.0372 18.8778 46.2554 18.6487L46.3525 18.5465C46.5707 18.3192 46.6898 18.1056 46.7128 17.9067C46.7361 17.7078 46.6637 17.5282 46.496 17.3687L46.3053 17.1863Z" fill="white"/>
<path d="M47.6431 21.3399C47.7338 21.2698 47.7801 21.1823 47.781 21.0791C47.7819 20.976 47.7476 20.8216 47.6765 20.6181C47.6055 20.4146 47.556 20.2414 47.5276 20.0993C47.4332 19.6383 47.5299 19.2969 47.8168 19.0755C47.9598 18.9651 48.1179 18.9091 48.2916 18.9082C48.4648 18.9069 48.6408 18.9586 48.8191 19.0645C48.9978 19.1695 49.1605 19.3175 49.3071 19.5077C49.4501 19.6928 49.5459 19.8848 49.5936 20.0833C49.6412 20.2813 49.6353 20.4682 49.5757 20.6442C49.5166 20.8202 49.4084 20.9692 49.2512 21.0901L48.7719 20.4696C48.8773 20.389 48.9341 20.2936 48.9419 20.185C48.9501 20.0759 48.9121 19.966 48.8268 19.8564C48.7411 19.746 48.6486 19.6763 48.55 19.6507C48.4511 19.6241 48.364 19.6397 48.2884 19.6983C48.2219 19.7492 48.1898 19.8317 48.1907 19.9435C48.1917 20.0562 48.2329 20.2235 48.3136 20.4458C48.3942 20.6685 48.4451 20.8628 48.4676 21.0283C48.5225 21.4307 48.4089 21.7414 48.1266 21.9591C47.9011 22.1341 47.6587 22.1855 47.3984 22.1149C47.1381 22.0443 46.8929 21.861 46.6642 21.5649C46.5024 21.3555 46.3938 21.1378 46.3379 20.91C46.282 20.6827 46.2861 20.4756 46.3503 20.2891C46.4149 20.103 46.5317 19.944 46.7022 19.8129L47.1839 20.4357C47.0455 20.5429 46.9717 20.6571 46.9612 20.7794C46.9511 20.9013 47.0079 21.0425 47.1321 21.2033C47.2114 21.306 47.2962 21.3702 47.3869 21.3958C47.4772 21.4201 47.5629 21.4022 47.6431 21.3399Z" fill="white"/>
<path d="M28.777 54.3675L26.5488 53.912L26.6474 53.4294L27.8948 52.5605C28.2065 52.324 28.3802 52.121 28.415 51.9519C28.4429 51.8139 28.4342 51.7035 28.3889 51.6196C28.343 51.5353 28.2637 51.4817 28.1501 51.4588C28.0374 51.4359 27.9361 51.4647 27.8462 51.5458C27.7569 51.627 27.6973 51.7397 27.6675 51.8827L26.9265 51.731C26.9668 51.5358 27.0525 51.3639 27.184 51.2186C27.316 51.0729 27.4787 50.9707 27.6716 50.9129C27.8646 50.8547 28.0685 50.8479 28.2835 50.8914C28.6285 50.962 28.8783 51.0963 29.0323 51.2938C29.1858 51.4913 29.2326 51.7392 29.1716 52.0371C29.1455 52.1632 29.0974 52.2805 29.0263 52.39C28.9553 52.5 28.8568 52.61 28.7312 52.7209C28.6061 52.8318 28.4109 52.9748 28.1473 53.1485L27.6373 53.5403L28.8939 53.7974L28.777 54.3675Z" fill="white"/>
<path d="M31.8858 53.2767C31.8592 53.7166 31.7396 54.0494 31.5283 54.2758C31.3161 54.5017 31.0306 54.6039 30.6718 54.5824C30.3097 54.5594 30.0371 54.4224 29.8537 54.1713C29.6704 53.9192 29.5921 53.575 29.6182 53.1383L29.6548 52.5443C29.6814 52.1048 29.8006 51.7717 30.0123 51.5453C30.2245 51.3198 30.5105 51.2176 30.8711 51.2391C31.2314 51.2611 31.5031 51.3986 31.6869 51.6502C31.8698 51.9018 31.9486 52.2469 31.922 52.6846L31.8858 53.2767ZM31.175 52.5407C31.1892 52.307 31.169 52.1301 31.1154 52.0109C31.0613 51.8917 30.9683 51.8285 30.8354 51.8207C30.7062 51.812 30.6085 51.8606 30.543 51.9637C30.4775 52.0668 30.4362 52.2272 30.4184 52.4454L30.3679 53.2762C30.3533 53.5187 30.373 53.6983 30.4275 53.8147C30.4811 53.9311 30.5746 53.993 30.7071 54.0008C30.8349 54.0086 30.933 53.9595 31.0008 53.8541C31.0687 53.7487 31.1104 53.5787 31.1264 53.3454L31.175 52.5407Z" fill="white"/>
<path d="M34.8525 54.417L32.5858 54.5985L32.5464 54.1081L33.5033 52.9267C33.737 52.6132 33.847 52.3698 33.8333 52.1975C33.8223 52.0573 33.7833 51.9533 33.7164 51.8859C33.6495 51.8181 33.5578 51.7883 33.4419 51.7974C33.3273 51.8066 33.2384 51.8634 33.1747 51.9661C33.111 52.0687 33.0853 52.1934 33.0968 52.3391L32.3424 52.3996C32.3269 52.2003 32.3622 52.0119 32.4479 51.8355C32.5336 51.659 32.6619 51.516 32.8314 51.4061C33.0006 51.297 33.1949 51.2333 33.4139 51.2159C33.765 51.1875 34.0413 51.247 34.2443 51.3946C34.4469 51.5413 34.5601 51.7667 34.5849 52.0706C34.5945 52.1984 34.5812 52.3245 34.5432 52.4496C34.5051 52.5742 34.4414 52.7076 34.3516 52.8487C34.2618 52.9904 34.1142 53.181 33.9089 53.4216L33.5285 53.9399L34.8067 53.8373L34.8525 54.417Z" fill="white"/>
<path d="M37.8296 53.808L35.6096 54.302L35.5024 53.8213L36.2856 52.5188C36.4735 52.1755 36.5491 51.9189 36.5111 51.7502C36.4808 51.6132 36.4272 51.5161 36.3521 51.4574C36.276 51.3997 36.1816 51.3836 36.0679 51.4084C35.9556 51.434 35.8754 51.5014 35.8269 51.6128C35.7787 51.7232 35.77 51.8511 35.8016 51.9931L35.0633 52.1572C35.0198 51.962 35.0285 51.7709 35.0895 51.5839C35.15 51.3969 35.2567 51.2374 35.4089 51.1054C35.562 50.9734 35.7453 50.8841 35.9593 50.8364C36.303 50.7599 36.5853 50.78 36.8067 50.8974C37.0276 51.0151 37.1715 51.2223 37.2375 51.5193C37.2654 51.6444 37.2691 51.7718 37.2489 51.901C37.2283 52.0303 37.1834 52.1705 37.1146 52.3231C37.0454 52.4753 36.9258 52.6847 36.7558 52.9519L36.4506 53.5179L37.7026 53.2388L37.8296 53.808Z" fill="white"/>
<mask id="mask0_541_129" style="mask-type:luminance" maskUnits="userSpaceOnUse" x="3" y="24" width="23" height="30">
<path d="M20.7649 53.6646L25.12 51.8305L23.7447 48.1633L22.1402 31.2263L14.8392 26.0458L12.8631 26.7905L11.3164 24.127L3.80273 36.9315L20.7649 53.6646Z" fill="white"/>
</mask>
<g mask="url(#mask0_541_129)">
<path fill-rule="evenodd" clip-rule="evenodd" d="M40.3647 14.4966C40.016 15.1245 38.614 15.2771 37.6626 15.0443C38.1406 14.613 39.1663 14.2024 40.0476 14.4187L40.3647 14.4966L40.0861 14.3275C39.3116 13.8587 38.884 12.8468 38.8574 12.207C39.6933 12.7134 40.5696 13.8097 40.3647 14.4966ZM32.0179 52.4622C32.3167 52.4622 32.5582 52.7019 32.5582 52.9984C32.5582 53.294 32.3162 53.5341 32.0174 53.5346C31.7186 53.5351 31.4771 53.2949 31.4771 52.9989C31.4776 52.7028 31.7191 52.4622 32.0179 52.4622ZM39.1635 13.9403L38.9174 13.7276C38.2332 13.1355 37.1319 13.0361 36.5087 13.2029C37.247 13.8417 38.5641 14.3413 39.1635 13.9403ZM24.9438 13.9462C25.5427 14.3468 26.8603 13.8463 27.5991 13.207C26.9758 13.0407 25.8745 13.1406 25.1899 13.7336L24.9438 13.9462ZM30.6275 53.0057C30.4616 53.7028 29.1522 54.2243 28.1724 54.2532C28.5161 53.7106 29.3933 53.0419 30.3012 53.0149L30.6275 53.0057C30.6389 52.289 29.4982 51.4668 28.5555 51.2019C28.7549 51.811 29.4396 52.6716 30.3135 52.9177L30.6275 53.0057ZM28.5894 52.7367C28.6738 52.025 27.6225 51.0928 26.7114 50.7354C26.8475 51.3609 27.4414 52.2858 28.2861 52.6171L28.5894 52.7367L28.2636 52.7133C27.358 52.6496 26.4176 53.2271 26.0203 53.7321C26.9983 53.8013 28.3534 53.4132 28.5894 52.7367ZM26.589 52.2651C26.2852 52.915 24.8975 53.1657 23.9319 52.9984C24.3782 52.5351 25.3723 52.0552 26.2668 52.2088L26.589 52.2651C26.7448 51.5653 25.7934 50.5323 24.924 50.086C24.9955 50.7225 25.4932 51.7019 26.2989 52.1157L26.589 52.2651ZM24.6472 51.596C24.8732 50.915 24.0318 49.7927 23.2119 49.2615C23.2188 49.9022 23.6138 50.926 24.3741 51.4187L24.6472 51.596L24.3329 51.5085C23.4584 51.2651 22.4209 51.6446 21.9296 52.0607C22.8727 52.3229 24.2788 52.2129 24.6472 51.596ZM22.7825 50.7358C22.3535 51.3133 20.9438 51.2821 20.0318 50.9274C20.5625 50.5621 21.6335 50.289 22.4791 50.6176L22.7825 50.7358C23.0767 50.0814 22.353 48.8802 21.5914 48.2698C21.5332 48.9077 21.8224 49.9659 22.5286 50.5323L22.7825 50.7358ZM21.0153 49.6941C21.3746 49.0722 20.7765 47.8055 20.0809 47.1213C19.958 47.7501 20.1386 48.8326 20.7834 49.4659L21.0153 49.6941L20.7252 49.5466C19.9182 49.1341 18.8247 49.2991 18.2596 49.6098C19.1304 50.0544 20.53 50.2257 21.0153 49.6941ZM19.3627 48.481C18.8261 48.9613 17.4512 48.6506 16.6295 48.1217C17.2234 47.8692 18.3274 47.8142 19.0887 48.3046L19.3627 48.481L19.1551 48.2313C18.5777 47.5356 18.508 46.4412 18.6941 45.828C19.3169 46.5782 19.783 47.8981 19.3627 48.481ZM17.8421 47.1094C17.2596 47.5338 15.9233 47.0874 15.1593 46.4783C15.7752 46.2868 16.8797 46.3422 17.5873 46.9064L17.8421 47.1094C18.3192 46.5709 17.9897 45.2112 17.4462 44.4023C17.1991 44.9944 17.1574 46.0906 17.6611 46.8399L17.8421 47.1094ZM16.4682 45.5925C15.8458 45.9559 14.5617 45.3784 13.8637 44.6965C14.4961 44.5673 15.5892 44.7332 16.2358 45.3651L16.4682 45.5925C16.9979 45.1044 16.8078 43.7185 16.349 42.8597C16.0429 43.4238 15.8903 44.5104 16.3151 45.306L16.4682 45.5925ZM15.2555 43.9454C14.5993 44.2455 13.3807 43.5421 12.7556 42.7941C13.3976 42.7286 14.4682 43.0031 15.0475 43.6965L15.2555 43.9454L15.1323 43.6456C14.7904 42.8106 15.053 41.7456 15.4141 41.214C15.7835 42.1145 15.8316 43.5127 15.2555 43.9454ZM14.2161 42.186L14.1245 41.8748C13.8692 41.0109 14.2377 39.9761 14.6515 39.4839C14.9274 40.4165 14.8334 41.8129 14.2161 42.186L14.0342 41.9165C13.5282 41.169 12.4911 40.7896 11.8459 40.79C12.3917 41.5966 13.5328 42.4183 14.2161 42.186ZM13.361 40.3304C12.6575 40.494 11.6057 39.5627 11.1442 38.7053C11.7867 38.7685 12.7799 39.2502 13.2074 40.0449L13.361 40.3304C14.0127 40.021 14.2478 38.6416 14.0686 37.6861C13.6071 38.1343 13.135 39.1265 13.3014 40.0123L13.361 40.3304ZM12.6983 38.4001L12.6708 38.077C12.5952 37.1796 13.1653 36.2388 13.6703 35.8387C13.7519 36.8075 13.3779 38.1576 12.6983 38.4001L12.5741 38.0999C12.2295 37.2667 11.2909 36.6884 10.658 36.5614C11.0297 37.4606 11.982 38.4922 12.6983 38.4001ZM12.2349 36.4125L12.2404 36.0885C12.256 35.1875 12.9192 34.3089 13.4618 33.9611C13.4448 34.9331 12.9361 36.2388 12.2349 36.4125L12.1419 36.1018C11.8839 35.2383 11.0081 34.5688 10.3917 34.3786C10.6704 35.3107 11.5131 36.4326 12.2349 36.4125ZM11.976 34.3882C11.2556 34.3364 10.5315 33.1362 10.3486 32.1806C10.9426 32.4313 11.7455 33.1847 11.9151 34.0702L11.976 34.3882C12.6909 34.286 13.3298 33.0376 13.4453 32.0725C12.8701 32.3639 12.1218 33.1715 12.0145 34.066L11.976 34.3882ZM11.9238 32.3488C11.212 32.2251 10.6135 30.9584 10.5292 29.99C11.0943 30.2984 11.817 31.1279 11.8954 32.0262L11.9238 32.3488C12.6451 32.3181 13.4077 31.1403 13.6204 30.1912C13.0186 30.4236 12.1919 31.1527 11.9943 32.0326L11.9238 32.3488ZM12.0782 30.3145C11.3834 30.1197 10.916 28.8003 10.9307 27.8278C11.4618 28.1917 12.0961 29.089 12.0833 29.99L12.0782 30.3145C12.7991 30.3562 13.6772 29.26 13.9856 28.337C13.3633 28.5079 12.4668 29.1513 12.1809 30.0065L12.0782 30.3145ZM12.4389 28.3049L12.5723 28.0093C12.943 27.1867 13.9004 26.6367 14.5365 26.5281C14.1364 27.4163 13.152 28.4185 12.4389 28.3049L12.4765 27.9836C12.581 27.0886 12.0411 26.1317 11.5489 25.7169C11.4366 26.6825 11.7675 28.0423 12.4389 28.3049ZM13.0017 26.3425C12.3601 26.0139 12.169 24.6276 12.3793 23.6775C12.8261 24.14 13.2666 25.1459 13.0718 26.0258L13.0017 26.3425C13.6992 26.5263 14.7807 25.6271 15.2693 24.7839C14.6254 24.8278 13.6171 25.2797 13.1648 26.0611L13.0017 26.3425ZM13.7606 24.4452C13.1557 24.0538 13.1062 22.6556 13.4118 21.7316C13.8096 22.2358 14.1456 23.2811 13.8623 24.1372L13.7606 24.4452C14.4361 24.6981 15.6029 23.9113 16.1749 23.1212C15.5296 23.101 14.481 23.4498 13.9512 24.1817L13.7606 24.4452ZM14.7083 22.6336C15.3545 22.953 16.5951 22.2866 17.244 21.5575C16.6043 21.4723 15.5255 21.7147 14.9242 22.3907L14.7083 22.6336L14.8408 22.337C15.2092 21.5135 14.981 20.4402 14.6364 19.8985C14.239 20.7876 14.1465 22.184 14.7083 22.6336ZM15.8343 20.926C15.3211 20.4223 15.5553 19.0424 16.041 18.1973C16.3288 18.7706 16.4471 19.8614 15.9966 20.6437L15.8343 20.926L16.0745 20.706C16.7408 20.0937 17.8384 19.9604 18.4663 20.1084C17.7472 20.7692 16.4452 21.3077 15.8343 20.926ZM17.1286 19.3389L17.3893 19.1432C18.1148 18.6006 19.2202 18.5782 19.8297 18.7881C19.0474 19.3742 17.6973 19.7803 17.1286 19.3389L17.3183 19.0745C17.8453 18.3408 17.8389 17.2436 17.6107 16.6446C17.0419 17.437 16.6689 18.7867 17.1286 19.3389ZM18.5772 17.8894C18.1757 17.294 18.684 15.9884 19.3302 15.2569C19.4961 15.8756 19.3916 16.9682 18.7926 17.6455L18.5772 17.8894C19.0983 18.3852 20.4828 18.1162 21.3205 17.6121C20.7353 17.3417 19.6331 17.2542 18.8563 17.7216L18.5772 17.8894ZM20.1656 16.5915C19.8265 15.959 20.4644 14.7107 21.1817 14.048C21.2843 14.6804 21.0689 15.7565 20.4044 16.371L20.1656 16.5915L20.4603 16.4522C21.2807 16.0644 22.3677 16.2615 22.9227 16.5892C22.0373 17.0076 20.6331 17.1368 20.1656 16.5915ZM21.8769 15.459L22.1844 15.35C23.0396 15.0466 24.1014 15.3509 24.6202 15.7322C23.6972 16.0599 22.2871 16.0484 21.8769 15.459L22.1367 15.2629C22.8604 14.718 23.1835 13.6685 23.1459 13.0292C22.365 13.6176 21.6037 14.7964 21.8769 15.459ZM23.6945 14.5035C23.4901 13.8165 24.3668 12.7199 25.2036 12.213C25.1761 12.8523 24.7481 13.8647 23.9731 14.3344L23.6945 14.5035L24.0116 14.4256C24.8933 14.2084 25.9185 14.6185 26.3961 15.0493C25.4442 15.2831 24.0428 15.1309 23.6945 14.5035ZM33.3987 53.0044C33.5642 53.701 34.873 54.2216 35.8529 54.25C35.5096 53.7074 34.6329 53.0396 33.725 53.0135L33.3987 53.0044C33.3877 52.2876 34.5293 51.4645 35.472 51.1987C35.2727 51.8078 34.5866 52.6689 33.7127 52.9159L33.3987 53.0044ZM35.4372 52.7335C35.3533 52.0218 36.4056 51.0887 37.3171 50.7303C37.1805 51.3563 36.5852 52.2812 35.741 52.6134L35.4372 52.7335L35.763 52.7097C36.6686 52.6451 37.609 53.222 38.0054 53.7266C37.0275 53.7972 35.6723 53.4104 35.4372 52.7335ZM37.4376 52.2606L37.7277 52.1107C38.5343 51.6959 39.032 50.7166 39.1049 50.0796C38.2346 50.5273 37.2823 51.5607 37.4376 52.2606L37.7593 52.2042C38.6539 52.0497 39.6479 52.5291 40.0939 52.9915C39.1283 53.1597 37.7406 52.9104 37.4376 52.2606ZM39.3803 51.5901C39.1548 50.9095 39.9972 49.7863 40.818 49.2542C40.8106 49.8949 40.4142 50.9191 39.6539 51.4123L39.3803 51.5901L39.6947 51.5021C40.5691 51.2583 41.6067 51.6364 42.0975 52.0525C41.1539 52.3151 39.7479 52.2065 39.3803 51.5901ZM41.2455 50.7285C41.674 51.3055 43.0837 51.2734 43.9957 50.9178C43.4655 50.553 42.3945 50.2807 41.5494 50.6098L41.2455 50.7285C40.9518 50.0741 41.6763 48.8729 42.4389 48.2615C42.4962 48.8995 42.2061 49.9581 41.4999 50.525L41.2455 50.7285ZM43.0136 49.6854C42.6552 49.064 43.2542 47.7964 43.9504 47.1121C44.0727 47.7409 43.8912 48.8234 43.246 49.4572L43.0136 49.6854L43.3042 49.5374C44.1117 49.1245 45.2047 49.2886 45.7698 49.5988C44.8981 50.0438 43.4985 50.2161 43.0136 49.6854ZM44.6671 48.471C45.2033 48.9508 46.5787 48.6392 47.4008 48.1094C46.8073 47.8573 45.7033 47.8032 44.9412 48.2945L44.6671 48.471L44.8752 48.2212C45.4526 47.5251 45.5237 46.4307 45.3381 45.8175C44.7148 46.5677 44.2478 47.888 44.6671 48.471ZM46.1896 47.0975L46.3706 46.828C46.8747 46.0782 46.8339 44.982 46.5874 44.3899C46.0434 45.1997 45.7125 46.5599 46.1896 47.0975L46.4439 46.8945C47.152 46.3298 48.256 46.273 48.8724 46.4641C48.1084 47.0741 46.7716 47.5214 46.1896 47.0975ZM47.5644 45.5796C48.1868 45.9426 49.4714 45.3638 50.1703 44.6818C49.5378 44.5531 48.4448 44.7199 47.7977 45.3523L47.5644 45.5796C47.0356 45.092 47.2267 43.7057 47.6859 42.8464C47.9916 43.4101 48.1437 44.4967 47.718 45.2927L47.5644 45.5796ZM48.7784 43.9316C49.4342 44.2309 50.6538 43.5269 51.2798 42.7781C50.6377 42.713 49.5672 42.9885 48.9874 43.6823L48.7784 43.9316L48.9017 43.6319C49.2445 42.7969 48.9833 41.7314 48.6217 41.2002C48.2519 42.1012 48.2024 43.4994 48.7784 43.9316ZM49.8192 42.1713C50.5025 42.4032 51.6446 41.5811 52.1913 40.7735C51.5456 40.7731 50.5085 41.1535 50.0016 41.9019L49.8192 42.1713C49.2024 41.7992 49.1098 40.4028 49.3861 39.4693C49.7995 39.9615 50.1675 40.9958 49.9113 41.8597L49.8192 42.1713ZM50.6758 40.3153C51.3792 40.4784 52.4319 39.5462 52.8939 38.6883C52.2518 38.752 51.2578 39.2346 50.8297 40.0297L50.6758 40.3153C50.0245 40.0068 49.7903 38.6274 49.9709 37.6714C50.4324 38.1191 50.9035 39.1113 50.7362 39.9972L50.6758 40.3153ZM51.3403 38.3845C52.0566 38.4757 53.0094 37.4432 53.3819 36.544C52.7491 36.6714 51.8096 37.2507 51.4645 38.0838L51.3403 38.3845C50.6606 38.1425 50.2876 36.7928 50.3705 35.8236C50.8746 36.2232 51.4443 37.1636 51.3678 38.0609L51.3403 38.3845ZM51.8054 36.396C52.5272 36.4157 53.3709 35.2933 53.65 34.3607C53.0332 34.5514 52.1574 35.2214 51.8985 36.0853L51.8054 36.396C51.1047 36.2232 50.5969 34.918 50.5804 33.946C51.123 34.2929 51.7853 35.1714 51.7999 36.072L51.8054 36.396ZM52.0662 34.3717C52.7866 34.3195 53.5116 33.1183 53.6954 32.1632C53.1015 32.4144 52.2976 33.1682 52.1272 34.0537L52.0662 34.3717C51.3513 34.27 50.7133 33.022 50.5988 32.0569C51.1735 32.3479 51.9214 33.155 52.0277 34.0495L52.0662 34.3717ZM52.1203 32.3323L52.0492 32.0161C51.8526 31.1367 51.0263 30.408 50.4251 30.1761C50.6373 31.1247 51.3989 32.3021 52.1203 32.3323L52.1487 32.0097C52.228 31.1114 52.9512 30.2815 53.5167 29.9726C53.4314 30.941 52.8315 32.2081 52.1203 32.3323ZM51.9672 30.298C52.6624 30.1027 53.1308 28.7829 53.1175 27.8104C52.5859 28.1743 51.9507 29.073 51.9631 29.9735L51.9672 30.298C51.2463 30.3401 50.3692 29.2448 50.0616 28.3223C50.684 28.4928 51.58 29.1353 51.8646 29.9905L51.9672 30.298ZM51.6079 28.2888C52.2798 28.0253 52.612 26.6656 52.5002 25.7C52.008 26.1152 51.4672 27.0725 51.5708 27.9676L51.6079 28.2888C50.8953 28.4034 49.9113 27.4011 49.5112 26.5139C50.1478 26.622 51.1047 27.1711 51.4745 27.9932L51.6079 28.2888ZM51.0474 26.3269C51.689 25.9979 51.8815 24.6115 51.6721 23.6615C51.2248 24.1244 50.7839 25.1308 50.9778 26.0102L51.0474 26.3269C50.3494 26.5111 49.2688 25.6129 48.7812 24.7701C49.4251 24.8132 50.4329 25.2646 50.8847 26.0455L51.0474 26.3269ZM50.2899 24.4305L50.0997 24.167C49.5704 23.4356 48.5223 23.0873 47.877 23.1083C48.448 23.898 49.6144 24.6839 50.2899 24.4305L50.1886 24.123C49.9063 23.2669 50.2431 22.2216 50.6414 21.717C50.9457 22.6404 50.8953 24.0387 50.2899 24.4305ZM49.344 22.6194C48.6973 22.9392 47.4572 22.2738 46.8092 21.5451C47.4489 21.4594 48.5273 21.7009 49.1277 22.3765L49.344 22.6194L49.212 22.3233C48.844 21.4998 49.0731 20.4264 49.4182 19.8847C49.8146 20.7734 49.9063 22.1693 49.344 22.6194ZM48.2189 20.9127C48.7331 20.4086 48.5003 19.0287 48.0149 18.1845C47.7267 18.7583 47.608 19.849 48.0575 20.6308L48.2189 20.9127L47.9792 20.6927C47.3133 20.0809 46.2157 19.9484 45.5874 20.0969C46.3064 20.7573 47.608 21.2949 48.2189 20.9127ZM46.926 19.327L46.6657 19.1318C45.9407 18.5901 44.8353 18.5681 44.2253 18.7784C45.0076 19.3637 46.3573 19.7683 46.926 19.327L46.7368 19.063C46.2102 18.3298 46.2175 17.2326 46.4462 16.6332C47.0145 17.4246 47.3866 18.7743 46.926 19.327ZM45.4788 17.8779C45.8807 17.2821 45.3738 15.9769 44.7281 15.2459C44.5613 15.8651 44.6648 16.9572 45.2638 17.6341L45.4788 17.8779C44.9577 18.3742 43.5737 18.1061 42.7359 17.6029C43.3216 17.3321 44.4233 17.2436 45.1997 17.7102L45.4788 17.8779ZM43.8917 16.5819C44.2313 15.949 43.5943 14.701 42.8775 14.0388C42.7744 14.6717 42.9884 15.7469 43.6529 16.361L43.8917 16.5819L43.597 16.4425C42.7771 16.0553 41.6896 16.2537 41.1346 16.5819C42.0196 16.9994 43.4233 17.1277 43.8917 16.5819ZM42.1814 15.4508C42.455 14.7877 41.6947 13.6099 40.9142 13.0219C40.8757 13.6612 41.1983 14.7107 41.9211 15.2547L42.1814 15.4508C41.7712 16.0406 40.3606 16.053 39.4381 15.7262C39.9573 15.3445 41.0191 15.0393 41.8743 15.3417L42.1814 15.4508Z" fill="white"/>
</g>
<mask id="mask1_541_129" style="mask-type:luminance" maskUnits="userSpaceOnUse" x="38" y="21" width="19" height="33">
<path d="M39.3352 28.7043L48.5271 25.6154L51.1912 26.7896L56.0889 21.0898L55.1512 33.4921L51.484 46.3283L42.0859 53.6636L38.877 51.8296L40.2523 47.7036L39.3352 28.7043Z" fill="white"/>
</mask>
<g mask="url(#mask1_541_129)">
<path fill-rule="evenodd" clip-rule="evenodd" d="M40.3686 14.4966C40.0199 15.1245 38.618 15.2771 37.6665 15.0443C38.1445 14.613 39.1702 14.2024 40.0515 14.4187L40.3686 14.4966L40.09 14.3275C39.3155 13.8587 38.8879 12.8468 38.8613 12.207C39.6972 12.7134 40.5735 13.8097 40.3686 14.4966ZM32.0218 52.4622C32.3206 52.4622 32.5621 52.7019 32.5621 52.9984C32.5621 53.294 32.3202 53.5341 32.0213 53.5346C31.7225 53.5351 31.481 53.2949 31.481 52.9989C31.4815 52.7028 31.723 52.4622 32.0218 52.4622ZM39.1674 13.9403L38.9213 13.7276C38.2371 13.1355 37.1359 13.0361 36.5126 13.2029C37.2509 13.8417 38.568 14.3413 39.1674 13.9403ZM24.9477 13.9462C25.5466 14.3468 26.8642 13.8463 27.603 13.207C26.9797 13.0407 25.8784 13.1406 25.1938 13.7336L24.9477 13.9462ZM30.6314 53.0057C30.4655 53.7028 29.1561 54.2243 28.1763 54.2532C28.52 53.7106 29.3972 53.0419 30.3051 53.0149L30.6314 53.0057C30.6428 52.289 29.5021 51.4668 28.5594 51.2019C28.7588 51.811 29.4435 52.6716 30.3174 52.9177L30.6314 53.0057ZM28.5933 52.7367C28.6777 52.025 27.6264 51.0928 26.7153 50.7354C26.8514 51.3609 27.4453 52.2858 28.29 52.6171L28.5933 52.7367L28.2675 52.7133C27.3619 52.6496 26.4215 53.2271 26.0242 53.7321C27.0022 53.8013 28.3573 53.4132 28.5933 52.7367ZM26.5929 52.2651C26.2891 52.915 24.9014 53.1657 23.9358 52.9984C24.3821 52.5351 25.3762 52.0552 26.2707 52.2088L26.5929 52.2651C26.7487 51.5653 25.7973 50.5323 24.928 50.086C24.9994 50.7225 25.4971 51.7019 26.3028 52.1157L26.5929 52.2651ZM24.6511 51.596C24.8771 50.915 24.0357 49.7927 23.2158 49.2615C23.2227 49.9022 23.6177 50.926 24.378 51.4187L24.6511 51.596L24.3368 51.5085C23.4623 51.2651 22.4248 51.6446 21.9335 52.0607C22.8767 52.3229 24.2827 52.2129 24.6511 51.596ZM22.7864 50.7358C22.3574 51.3133 20.9477 51.2821 20.0357 50.9274C20.5664 50.5621 21.6374 50.289 22.483 50.6176L22.7864 50.7358C23.0806 50.0814 22.357 48.8802 21.5953 48.2698C21.5371 48.9077 21.8263 49.9659 22.5325 50.5323L22.7864 50.7358ZM21.0192 49.6941C21.3785 49.0722 20.7804 47.8055 20.0848 47.1213C19.9619 47.7501 20.1425 48.8326 20.7873 49.4659L21.0192 49.6941L20.7291 49.5466C19.9221 49.1341 18.8286 49.2991 18.2635 49.6098C19.1343 50.0544 20.5339 50.2257 21.0192 49.6941ZM19.3666 48.481C18.83 48.9613 17.4551 48.6506 16.6334 48.1217C17.2273 47.8692 18.3313 47.8142 19.0926 48.3046L19.3666 48.481L19.159 48.2313C18.5816 47.5356 18.5119 46.4412 18.698 45.828C19.3208 46.5782 19.7869 47.8981 19.3666 48.481ZM17.846 47.1094C17.2635 47.5338 15.9272 47.0874 15.1632 46.4783C15.7791 46.2868 16.8836 46.3422 17.5912 46.9064L17.846 47.1094C18.3231 46.5709 17.9936 45.2112 17.4501 44.4023C17.203 44.9944 17.1613 46.0906 17.665 46.8399L17.846 47.1094ZM16.4721 45.5925C15.8497 45.9559 14.5656 45.3784 13.8676 44.6965C14.5001 44.5673 15.5931 44.7332 16.2397 45.3651L16.4721 45.5925C17.0019 45.1044 16.8117 43.7185 16.3529 42.8597C16.0468 43.4238 15.8942 44.5104 16.319 45.306L16.4721 45.5925ZM15.2594 43.9454C14.6032 44.2455 13.3846 43.5421 12.7595 42.7941C13.4015 42.7286 14.4721 43.0031 15.0514 43.6965L15.2594 43.9454L15.1362 43.6456C14.7943 42.8106 15.0569 41.7456 15.418 41.214C15.7874 42.1145 15.8355 43.5127 15.2594 43.9454ZM14.22 42.186L14.1284 41.8748C13.8731 41.0109 14.2416 39.9761 14.6554 39.4839C14.9313 40.4165 14.8374 41.8129 14.22 42.186L14.0381 41.9165C13.5321 41.169 12.495 40.7896 11.8498 40.79C12.3956 41.5966 13.5367 42.4183 14.22 42.186ZM13.3649 40.3304C12.6614 40.494 11.6096 39.5627 11.1481 38.7053C11.7906 38.7685 12.7838 39.2502 13.2113 40.0449L13.3649 40.3304C14.0166 40.021 14.2517 38.6416 14.0725 37.6861C13.611 38.1343 13.1389 39.1265 13.3053 40.0123L13.3649 40.3304ZM12.7022 38.4001L12.6747 38.077C12.5991 37.1796 13.1692 36.2388 13.6742 35.8387C13.7558 36.8075 13.3818 38.1576 12.7022 38.4001L12.578 38.0999C12.2334 37.2667 11.2948 36.6884 10.6619 36.5614C11.0336 37.4606 11.9859 38.4922 12.7022 38.4001ZM12.2389 36.4125L12.2444 36.0885C12.2599 35.1875 12.9231 34.3089 13.4657 33.9611C13.4487 34.9331 12.94 36.2388 12.2389 36.4125L12.1458 36.1018C11.8878 35.2383 11.012 34.5688 10.3956 34.3786C10.6743 35.3107 11.5171 36.4326 12.2389 36.4125ZM11.9799 34.3882C11.2595 34.3364 10.5354 33.1362 10.3525 32.1806C10.9465 32.4313 11.7494 33.1847 11.919 34.0702L11.9799 34.3882C12.6949 34.286 13.3337 33.0376 13.4492 32.0725C12.874 32.3639 12.1257 33.1715 12.0184 34.066L11.9799 34.3882ZM11.9277 32.3488C11.216 32.2251 10.6174 30.9584 10.5331 29.99C11.0982 30.2984 11.8209 31.1279 11.8993 32.0262L11.9277 32.3488C12.649 32.3181 13.4116 31.1403 13.6243 30.1912C13.0225 30.4236 12.1958 31.1527 11.9983 32.0326L11.9277 32.3488ZM12.0821 30.3145C11.3874 30.1197 10.9199 28.8003 10.9346 27.8278C11.4657 28.1917 12.1 29.089 12.0872 29.99L12.0821 30.3145C12.803 30.3562 13.6811 29.26 13.9895 28.337C13.3672 28.5079 12.4708 29.1513 12.1848 30.0065L12.0821 30.3145ZM12.4428 28.3049L12.5762 28.0093C12.9469 27.1867 13.9043 26.6367 14.5404 26.5281C14.1403 27.4163 13.1559 28.4185 12.4428 28.3049L12.4804 27.9836C12.5849 27.0886 12.045 26.1317 11.5528 25.7169C11.4405 26.6825 11.7714 28.0423 12.4428 28.3049ZM13.0056 26.3425C12.364 26.0139 12.1729 24.6276 12.3832 23.6775C12.83 24.14 13.2705 25.1459 13.0757 26.0258L13.0056 26.3425C13.7031 26.5263 14.7847 25.6271 15.2732 24.7839C14.6293 24.8278 13.6211 25.2797 13.1687 26.0611L13.0056 26.3425ZM13.7645 24.4452C13.1596 24.0538 13.1101 22.6556 13.4157 21.7316C13.8135 22.2358 14.1495 23.2811 13.8662 24.1372L13.7645 24.4452C14.44 24.6981 15.6068 23.9113 16.1788 23.1212C15.5335 23.101 14.4849 23.4498 13.9551 24.1817L13.7645 24.4452ZM14.7122 22.6336C15.3584 22.953 16.599 22.2866 17.248 21.5575C16.6082 21.4723 15.5294 21.7147 14.9281 22.3907L14.7122 22.6336L14.8447 22.337C15.2131 21.5135 14.9849 20.4402 14.6403 19.8985C14.243 20.7876 14.1504 22.184 14.7122 22.6336ZM15.8383 20.926C15.325 20.4223 15.5592 19.0424 16.0449 18.1973C16.3327 18.7706 16.451 19.8614 16.0005 20.6437L15.8383 20.926L16.0784 20.706C16.7448 20.0937 17.8424 19.9604 18.4702 20.1084C17.7512 20.7692 16.4492 21.3077 15.8383 20.926ZM17.1325 19.3389L17.3932 19.1432C18.1187 18.6006 19.2241 18.5782 19.8336 18.7881C19.0513 19.3742 17.7012 19.7803 17.1325 19.3389L17.3222 19.0745C17.8492 18.3408 17.8428 17.2436 17.6146 16.6446C17.0458 17.437 16.6728 18.7867 17.1325 19.3389ZM18.5811 17.8894C18.1797 17.294 18.6879 15.9884 19.3341 15.2569C19.5 15.8756 19.3955 16.9682 18.7965 17.6455L18.5811 17.8894C19.1022 18.3852 20.4867 18.1162 21.3244 17.6121C20.7392 17.3417 19.637 17.2542 18.8602 17.7216L18.5811 17.8894ZM20.1695 16.5915C19.8304 15.959 20.4683 14.7107 21.1856 14.048C21.2882 14.6804 21.0728 15.7565 20.4083 16.371L20.1695 16.5915L20.4642 16.4522C21.2846 16.0644 22.3716 16.2615 22.9266 16.5892C22.0412 17.0076 20.637 17.1368 20.1695 16.5915ZM21.8808 15.459L22.1883 15.35C23.0435 15.0466 24.1053 15.3509 24.6241 15.7322C23.7011 16.0599 22.291 16.0484 21.8808 15.459L22.1406 15.2629C22.8643 14.718 23.1874 13.6685 23.1498 13.0292C22.3689 13.6176 21.6077 14.7964 21.8808 15.459ZM23.6984 14.5035C23.494 13.8165 24.3707 12.7199 25.2075 12.213C25.18 12.8523 24.752 13.8647 23.977 14.3344L23.6984 14.5035L24.0155 14.4256C24.8973 14.2084 25.9224 14.6185 26.4 15.0493C25.4481 15.2831 24.0467 15.1309 23.6984 14.5035ZM33.4026 53.0044C33.5681 53.701 34.8769 54.2216 35.8568 54.25C35.5135 53.7074 34.6368 53.0396 33.7289 53.0135L33.4026 53.0044C33.3916 52.2876 34.5332 51.4645 35.4759 51.1987C35.2766 51.8078 34.5905 52.6689 33.7166 52.9159L33.4026 53.0044ZM35.4411 52.7335C35.3572 52.0218 36.4095 51.0887 37.321 50.7303C37.1844 51.3563 36.5891 52.2812 35.7449 52.6134L35.4411 52.7335L35.7669 52.7097C36.6725 52.6451 37.6129 53.222 38.0093 53.7266C37.0314 53.7972 35.6762 53.4104 35.4411 52.7335ZM37.4415 52.2606L37.7316 52.1107C38.5382 51.6959 39.0359 50.7166 39.1088 50.0796C38.2385 50.5273 37.2862 51.5607 37.4415 52.2606L37.7632 52.2042C38.6578 52.0497 39.6519 52.5291 40.0978 52.9915C39.1322 53.1597 37.7445 52.9104 37.4415 52.2606ZM39.3842 51.5901C39.1587 50.9095 40.0011 49.7863 40.8219 49.2542C40.8145 49.8949 40.4181 50.9191 39.6578 51.4123L39.3842 51.5901L39.6986 51.5021C40.573 51.2583 41.6106 51.6364 42.1014 52.0525C41.1578 52.3151 39.7518 52.2065 39.3842 51.5901ZM41.2495 50.7285C41.6779 51.3055 43.0876 51.2734 43.9996 50.9178C43.4694 50.553 42.3984 50.2807 41.5533 50.6098L41.2495 50.7285C40.9557 50.0741 41.6802 48.8729 42.4428 48.2615C42.5001 48.8995 42.21 49.9581 41.5038 50.525L41.2495 50.7285ZM43.0175 49.6854C42.6591 49.064 43.2581 47.7964 43.9543 47.1121C44.0766 47.7409 43.8951 48.8234 43.2499 49.4572L43.0175 49.6854L43.3081 49.5374C44.1156 49.1245 45.2086 49.2886 45.7737 49.5988C44.902 50.0438 43.5024 50.2161 43.0175 49.6854ZM44.671 48.471C45.2072 48.9508 46.5826 48.6392 47.4047 48.1094C46.8112 47.8573 45.7072 47.8032 44.9451 48.2945L44.671 48.471L44.8791 48.2212C45.4565 47.5251 45.5276 46.4307 45.342 45.8175C44.7187 46.5677 44.2517 47.888 44.671 48.471ZM46.1935 47.0975L46.3745 46.828C46.8786 46.0782 46.8378 44.982 46.5913 44.3899C46.0473 45.1997 45.7164 46.5599 46.1935 47.0975L46.4478 46.8945C47.1559 46.3298 48.2599 46.273 48.8763 46.4641C48.1123 47.0741 46.7755 47.5214 46.1935 47.0975ZM47.5683 45.5796C48.1907 45.9426 49.4753 45.3638 50.1742 44.6818C49.5417 44.5531 48.4487 44.7199 47.8016 45.3523L47.5683 45.5796C47.0395 45.092 47.2306 43.7057 47.6898 42.8464C47.9955 43.4101 48.1476 44.4967 47.7219 45.2927L47.5683 45.5796ZM48.7823 43.9316C49.4382 44.2309 50.6577 43.5269 51.2837 42.7781C50.6416 42.713 49.5711 42.9885 48.9913 43.6823L48.7823 43.9316L48.9056 43.6319C49.2484 42.7969 48.9872 41.7314 48.6256 41.2002C48.2558 42.1012 48.2063 43.4994 48.7823 43.9316ZM49.8231 42.1713C50.5064 42.4032 51.6485 41.5811 52.1952 40.7735C51.5495 40.7731 50.5124 41.1535 50.0055 41.9019L49.8231 42.1713C49.2063 41.7992 49.1137 40.4028 49.39 39.4693C49.8034 39.9615 50.1714 40.9958 49.9152 41.8597L49.8231 42.1713ZM50.6797 40.3153C51.3831 40.4784 52.4358 39.5462 52.8978 38.6883C52.2557 38.752 51.2617 39.2346 50.8336 40.0297L50.6797 40.3153C50.0284 40.0068 49.7942 38.6274 49.9748 37.6714C50.4363 38.1191 50.9074 39.1113 50.7402 39.9972L50.6797 40.3153ZM51.3442 38.3845C52.0605 38.4757 53.0133 37.4432 53.3859 36.544C52.753 36.6714 51.8135 37.2507 51.4684 38.0838L51.3442 38.3845C50.6645 38.1425 50.2915 36.7928 50.3744 35.8236C50.8786 36.2232 51.4482 37.1636 51.3717 38.0609L51.3442 38.3845ZM51.8093 36.396C52.5311 36.4157 53.3749 35.2933 53.654 34.3607C53.0371 34.5514 52.1613 35.2214 51.9024 36.0853L51.8093 36.396C51.1086 36.2232 50.6008 34.918 50.5843 33.946C51.1269 34.2929 51.7892 35.1714 51.8038 36.072L51.8093 36.396ZM52.0701 34.3717C52.7905 34.3195 53.5155 33.1183 53.6993 32.1632C53.1054 32.4144 52.3015 33.1682 52.1311 34.0537L52.0701 34.3717C51.3552 34.27 50.7172 33.022 50.6027 32.0569C51.1774 32.3479 51.9253 33.155 52.0316 34.0495L52.0701 34.3717ZM52.1242 32.3323L52.0532 32.0161C51.8565 31.1367 51.0302 30.408 50.429 30.1761C50.6412 31.1247 51.4028 32.3021 52.1242 32.3323L52.1526 32.0097C52.2319 31.1114 52.9551 30.2815 53.5206 29.9726C53.4353 30.941 52.8354 32.2081 52.1242 32.3323ZM51.9711 30.298C52.6663 30.1027 53.1347 28.7829 53.1214 27.8104C52.5898 28.1743 51.9546 29.073 51.967 29.9735L51.9711 30.298C51.2502 30.3401 50.3731 29.2448 50.0656 28.3223C50.6879 28.4928 51.5839 29.1353 51.8685 29.9905L51.9711 30.298ZM51.6118 28.2888C52.2837 28.0253 52.6159 26.6656 52.5041 25.7C52.0119 26.1152 51.4711 27.0725 51.5747 27.9676L51.6118 28.2888C50.8992 28.4034 49.9152 27.4011 49.5151 26.5139C50.1517 26.622 51.1086 27.1711 51.4785 27.9932L51.6118 28.2888ZM51.0513 26.3269C51.6929 25.9979 51.8854 24.6115 51.676 23.6615C51.2287 24.1244 50.7878 25.1308 50.9817 26.0102L51.0513 26.3269C50.3534 26.5111 49.2727 25.6129 48.7851 24.7701C49.429 24.8132 50.4368 25.2646 50.8886 26.0455L51.0513 26.3269ZM50.2938 24.4305L50.1036 24.167C49.5743 23.4356 48.5262 23.0873 47.8809 23.1083C48.4519 23.898 49.6183 24.6839 50.2938 24.4305L50.1925 24.123C49.9102 23.2669 50.247 22.2216 50.6453 21.717C50.9496 22.6404 50.8992 24.0387 50.2938 24.4305ZM49.3479 22.6194C48.7012 22.9392 47.4611 22.2738 46.8131 21.5451C47.4528 21.4594 48.5312 21.7009 49.1316 22.3765L49.3479 22.6194L49.2159 22.3233C48.8479 21.4998 49.077 20.4264 49.4221 19.8847C49.8185 20.7734 49.9102 22.1693 49.3479 22.6194ZM48.2228 20.9127C48.737 20.4086 48.5042 19.0287 48.0188 18.1845C47.7306 18.7583 47.6119 19.849 48.0615 20.6308L48.2228 20.9127L47.9831 20.6927C47.3172 20.0809 46.2196 19.9484 45.5913 20.0969C46.3103 20.7573 47.6119 21.2949 48.2228 20.9127ZM46.9299 19.327L46.6696 19.1318C45.9446 18.5901 44.8392 18.5681 44.2292 18.7784C45.0115 19.3637 46.3612 19.7683 46.9299 19.327L46.7407 19.063C46.2141 18.3298 46.2214 17.2326 46.4501 16.6332C47.0184 17.4246 47.3905 18.7743 46.9299 19.327ZM45.4827 17.8779C45.8846 17.2821 45.3777 15.9769 44.732 15.2459C44.5652 15.8651 44.6687 16.9572 45.2677 17.6341L45.4827 17.8779C44.9616 18.3742 43.5776 18.1061 42.7398 17.6029C43.3255 17.3321 44.4272 17.2436 45.2036 17.7102L45.4827 17.8779ZM43.8956 16.5819C44.2352 15.949 43.5982 14.701 42.8814 14.0388C42.7783 14.6717 42.9923 15.7469 43.6568 16.361L43.8956 16.5819L43.6009 16.4425C42.7811 16.0553 41.6935 16.2537 41.1385 16.5819C42.0235 16.9994 43.4272 17.1277 43.8956 16.5819ZM42.1853 15.4508C42.4589 14.7877 41.6986 13.6099 40.9181 13.0219C40.8796 13.6612 41.2022 14.7107 41.925 15.2547L42.1853 15.4508C41.7751 16.0406 40.3645 16.053 39.442 15.7262C39.9612 15.3445 41.0231 15.0393 41.8782 15.3417L42.1853 15.4508Z" fill="white"/>
</g>
<path fill-rule="evenodd" clip-rule="evenodd" d="M51.3349 27.0036L51.3495 26.6787C51.3908 25.7745 50.7867 24.8488 50.2698 24.4629C50.2253 25.4381 50.6493 26.7814 51.3349 27.0036Z" fill="white"/>
<path fill-rule="evenodd" clip-rule="evenodd" d="M12.7442 27.0036L12.7295 26.6787C12.6883 25.7745 13.2923 24.8488 13.8093 24.4629C13.8537 25.4381 13.4298 26.7814 12.7442 27.0036Z" fill="white"/>
</svg>
