<svg width="40" height="41" viewBox="0 0 40 41" fill="none" xmlns="http://www.w3.org/2000/svg">
<path fill-rule="evenodd" clip-rule="evenodd" d="M11.668 3.83398C11.1297 3.83398 10.6246 4.09393 10.3117 4.53192L1.97842 16.1986C1.53781 16.8154 1.56897 17.6519 2.05427 18.2343L18.7209 38.2343C19.0376 38.6143 19.5067 38.834 20.0013 38.834C20.4959 38.834 20.965 38.6143 21.2817 38.2343L37.9483 18.2343C38.4336 17.6519 38.4648 16.8154 38.0242 16.1986L29.6909 4.53192C29.378 4.09393 28.8729 3.83398 28.3346 3.83398H11.668ZM6.57329 15.5007L12.5257 7.16732H14.4584L12.0775 15.5007H6.57329ZM15.5442 15.5007L17.9251 7.16732H22.0775L24.4584 15.5007H15.5442ZM24.2885 18.834H15.7141L20.0013 30.6237L24.2885 18.834ZM23.7521 30.063L27.8354 18.834H33.1096L23.7521 30.063ZM27.9251 15.5007L25.5442 7.16732H27.4769L33.4293 15.5007H27.9251ZM6.89304 18.834H12.1673L16.2505 30.063L6.89304 18.834Z" fill="#FF7039"/>
</svg>
