<svg width="40" height="41" viewBox="0 0 40 41" fill="none" xmlns="http://www.w3.org/2000/svg">
<g clip-path="url(#clip0_242_2577)">
<path fill-rule="evenodd" clip-rule="evenodd" d="M17.5 2.16862C17.5 1.24815 16.7538 0.501953 15.8333 0.501953C14.9129 0.501953 14.1667 1.24815 14.1667 2.16862C14.1667 9.07218 8.57023 14.6686 1.66667 14.6686C0.746192 14.6686 0 15.4148 0 16.3353C0 17.2558 0.746192 18.002 1.66667 18.002C8.57023 18.002 14.1667 23.5984 14.1667 30.502C14.1667 31.4224 14.9129 32.1686 15.8333 32.1686C16.7538 32.1686 17.5 31.4224 17.5 30.502C17.5 23.5984 23.0964 18.002 30 18.002C30.9205 18.002 31.6667 17.2558 31.6667 16.3353C31.6667 15.4148 30.9205 14.6686 30 14.6686C23.0964 14.6686 17.5 9.07218 17.5 2.16862ZM8.74549 16.3353C11.8061 14.803 14.301 12.308 15.8333 9.24745C17.3656 12.308 19.8606 14.803 22.9212 16.3353C19.8606 17.8676 17.3656 20.3625 15.8333 23.4231C14.301 20.3625 11.8061 17.8676 8.74549 16.3353Z" fill="#FF7039"/>
<path d="M32.5926 24.7612C32.5926 24.2499 32.178 23.8353 31.6667 23.8353C31.1553 23.8353 30.7407 24.2499 30.7407 24.7612C30.7407 28.3408 27.8389 31.2427 24.2593 31.2427C23.7479 31.2427 23.3333 31.6573 23.3333 32.1686C23.3333 32.68 23.7479 33.0945 24.2593 33.0945C27.8389 33.0945 30.7407 35.9964 30.7407 39.576C30.7407 40.0874 31.1553 40.502 31.6667 40.502C32.178 40.502 32.5926 40.0874 32.5926 39.576C32.5926 35.9964 35.4944 33.0945 39.0741 33.0945C39.5854 33.0945 40 32.68 40 32.1686C40 31.6573 39.5854 31.2427 39.0741 31.2427C35.4944 31.2427 32.5926 28.3408 32.5926 24.7612Z" fill="#FF7039"/>
</g>
<defs>
<clipPath id="clip0_242_2577">
<rect width="40" height="40" fill="white" transform="translate(0 0.501953)"/>
</clipPath>
</defs>
</svg>
