<svg width="40" height="41" viewBox="0 0 40 41" fill="none" xmlns="http://www.w3.org/2000/svg">
<path fill-rule="evenodd" clip-rule="evenodd" d="M27.4987 5.50195C23.3566 5.50195 19.9987 8.85982 19.9987 13.002C19.9987 17.1441 23.3566 20.502 27.4987 20.502C31.6408 20.502 34.9987 17.1441 34.9987 13.002C34.9987 8.85982 31.6408 5.50195 27.4987 5.50195ZM23.332 13.002C23.332 10.7008 25.1975 8.83529 27.4987 8.83529C29.7999 8.83529 31.6654 10.7008 31.6654 13.002C31.6654 15.3031 29.7999 17.1686 27.4987 17.1686C25.1975 17.1686 23.332 15.3031 23.332 13.002Z" fill="#FF7039"/>
<path d="M27.4988 22.1686C20.1487 22.1686 15.832 28.0592 15.832 33.8353H19.1654C19.1654 29.6114 22.2657 25.502 27.4988 25.502C32.7319 25.502 35.832 29.6113 35.832 33.8353H39.1654C39.1654 28.0593 34.849 22.1686 27.4988 22.1686Z" fill="#FF7039"/>
<path d="M0.832031 35.502C0.832031 29.87 4.71347 23.8353 11.6655 23.8353C13.3269 23.8353 14.8473 24.1909 16.1919 24.83L14.7612 27.8406C13.8722 27.4181 12.8416 27.1686 11.6655 27.1686C7.08284 27.1686 4.16536 31.1339 4.16536 35.502H0.832031Z" fill="#FF7039"/>
<path fill-rule="evenodd" clip-rule="evenodd" d="M11.6654 8.83529C7.98347 8.83529 4.9987 11.8201 4.9987 15.502C4.9987 19.1839 7.98347 22.1686 11.6654 22.1686C15.3473 22.1686 18.332 19.1839 18.332 15.502C18.332 11.8201 15.3473 8.83529 11.6654 8.83529ZM8.33203 15.502C8.33203 13.661 9.82442 12.1686 11.6654 12.1686C13.5063 12.1686 14.9987 13.661 14.9987 15.502C14.9987 17.3429 13.5063 18.8353 11.6654 18.8353C9.82442 18.8353 8.33203 17.3429 8.33203 15.502Z" fill="#FF7039"/>
</svg>
