<svg width="40" height="41" viewBox="0 0 40 41" fill="none" xmlns="http://www.w3.org/2000/svg">
<path fill-rule="evenodd" clip-rule="evenodd" d="M4.51315 35.7055C2.56053 33.7529 2.56053 30.587 4.51316 28.6344L10.9776 22.1699L2.15612 13.3484C1.50525 12.6976 1.50525 11.6423 2.15612 10.9914L10.4895 2.65808C11.1403 2.0072 12.1956 2.0072 12.8465 2.65808L21.668 11.4796L28.8228 4.32478C29.0364 4.11118 29.304 3.95965 29.5971 3.88639L36.2637 2.21972C36.8317 2.07773 37.4325 2.24415 37.8465 2.65811C38.2605 3.07208 38.4269 3.67289 38.2849 4.24085L36.6182 10.9075C36.5449 11.2006 36.3934 11.4682 36.1798 11.6818L29.025 18.8366L37.8465 27.6581C38.4974 28.309 38.4974 29.3642 37.8465 30.0151L29.5131 38.3484C28.8623 38.9993 27.807 38.9993 27.1561 38.3484L18.3347 29.527L11.8702 35.9914C9.91756 37.9441 6.75173 37.9441 4.79911 35.9914L4.51315 35.7055ZM15.9776 27.1699L13.3347 24.527L6.87018 30.9914C6.2193 31.6423 6.2193 32.6976 6.87018 33.3485L7.15613 33.6344C7.80701 34.2853 8.86228 34.2853 9.51316 33.6344L15.9776 27.1699ZM26.668 16.4796L33.4964 9.65121L34.3774 6.12724L30.8534 7.00823L24.025 13.8366L26.668 16.4796ZM28.3346 34.8129L34.3109 28.8366L11.668 6.19361L5.69166 12.1699L8.33471 14.813L12.1561 10.9915L14.5132 13.3486L10.6917 17.17L13.3347 19.813L15.4895 17.6582L17.8465 20.0152L15.6917 22.17L18.3347 24.813L22.1561 20.9915L24.5132 23.3486L20.6917 27.17L23.3347 29.813L25.4895 27.6582L27.8465 30.0152L25.6917 32.17L28.3346 34.8129Z" fill="#FF7039"/>
</svg>
