<svg width="40" height="41" viewBox="0 0 40 41" fill="none" xmlns="http://www.w3.org/2000/svg">
<path fill-rule="evenodd" clip-rule="evenodd" d="M11.7383 5.02174C11.9498 4.31676 12.5986 3.83398 13.3346 3.83398H28.3347C28.9123 3.83398 29.4487 4.13307 29.7524 4.62443C30.0561 5.11579 30.0837 5.72936 29.8254 6.24601L26.0314 13.834H33.3346C33.9836 13.834 34.5736 14.2107 34.8466 14.7994C35.1197 15.3881 35.0262 16.0818 34.607 16.5772L16.2736 38.2439C15.7999 38.8037 15.016 38.9881 14.3424 38.6982C13.6688 38.4083 13.2639 37.7121 13.3448 36.9833L14.8059 23.834H8.33465C7.80781 23.834 7.31198 23.5849 6.99749 23.1622C6.68301 22.7395 6.58688 22.193 6.73827 21.6884L11.7383 5.02174ZM14.5747 7.16732L10.5747 20.5007H16.668C17.1421 20.5007 17.5937 20.7025 17.9099 21.0558C18.226 21.409 18.3768 21.8802 18.3245 22.3514L17.2618 31.9157L29.7411 17.1673H23.3347C22.757 17.1673 22.2206 16.8682 21.9169 16.3769C21.6132 15.8855 21.5856 15.2719 21.8439 14.7553L25.6379 7.16732H14.5747Z" fill="#FF7039"/>
</svg>
