<svg width="40" height="41" viewBox="0 0 40 41" fill="none" xmlns="http://www.w3.org/2000/svg">
<path fill-rule="evenodd" clip-rule="evenodd" d="M28.332 18.9538C28.332 17.2821 27.4965 15.7209 26.1055 14.7936L25.8415 14.6175C25.0776 14.1083 24.1801 13.8366 23.262 13.8366C22.0285 13.8366 20.8597 14.3257 19.9987 15.1738C19.1377 14.3257 17.9689 13.8366 16.7353 13.8366C15.8173 13.8366 14.9198 14.1083 14.1559 14.6175L13.8919 14.7936C12.5009 15.7209 11.6654 17.2821 11.6654 18.9538V18.9907C11.6654 20.4325 12.2878 21.8041 13.3728 22.7535L18.9012 27.5908C19.5296 28.1407 20.4678 28.1407 21.0962 27.5908L26.6246 22.7535C27.7096 21.8041 28.332 20.4325 28.332 18.9907V18.9538ZM24.2565 17.5671C24.7202 17.8762 24.9987 18.3966 24.9987 18.9538V18.9907C24.9987 19.4713 24.7912 19.9285 24.4295 20.245L19.9987 24.1219L15.5679 20.245C15.2062 19.9285 14.9987 19.4713 14.9987 18.9907V18.9538C14.9987 18.3966 15.2772 17.8762 15.7409 17.5671L16.0049 17.391C16.2212 17.2468 16.4754 17.1699 16.7353 17.1699C17.1756 17.1699 17.5867 17.3899 17.831 17.7562L18.6119 18.9277C18.9211 19.3914 19.4414 19.6699 19.9987 19.6699C20.556 19.6699 21.0763 19.3914 21.3854 18.9277L22.1664 17.7562C22.4106 17.3899 22.8218 17.1699 23.262 17.1699C23.522 17.1699 23.7762 17.2468 23.9925 17.391L24.2565 17.5671Z" fill="#FF7039"/>
<path fill-rule="evenodd" clip-rule="evenodd" d="M4.9987 7.16992C4.55667 7.16992 4.13275 7.34552 3.82019 7.65808C3.50763 7.97064 3.33203 8.39456 3.33203 8.83659V32.1699C3.33203 32.612 3.50763 33.0359 3.82019 33.3484C4.13275 33.661 4.55667 33.8366 4.9987 33.8366H9.9987L9.9987 37.1699C9.9987 37.7476 10.2978 38.284 10.7891 38.5877C11.2805 38.8914 11.8941 38.919 12.4107 38.6606L22.0588 33.8366L34.9987 33.8366C35.4407 33.8366 35.8646 33.661 36.1772 33.3484C36.4898 33.0359 36.6654 32.6119 36.6654 32.1699L36.6654 8.83659C36.6654 7.91611 35.9192 7.16992 34.9987 7.16992H4.9987ZM6.66536 30.5033L6.66536 10.5033L33.332 10.5033L33.332 30.5033H21.6654C21.4066 30.5033 21.1514 30.5635 20.92 30.6792L13.332 34.4732L13.332 32.1699C13.332 31.7279 13.1564 31.304 12.8439 30.9914C12.5313 30.6788 12.1074 30.5033 11.6654 30.5033L6.66536 30.5033Z" fill="#FF7039"/>
</svg>
