<svg width="40" height="41" viewBox="0 0 40 41" fill="none" xmlns="http://www.w3.org/2000/svg">
<path fill-rule="evenodd" clip-rule="evenodd" d="M11.6667 5.50195C10.7462 5.50195 10 6.24815 10 7.16862V20.502C10 21.4224 10.7462 22.1686 11.6667 22.1686H18.3333V28.8353H15V27.1686C15 26.2481 14.2538 25.502 13.3333 25.502H6.66667C5.74619 25.502 5 26.2481 5 27.1686V33.8353C5 34.7558 5.74619 35.502 6.66667 35.502H13.3333C14.2538 35.502 15 34.7558 15 33.8353V32.1686H25V33.8353C25 34.7558 25.7462 35.502 26.6667 35.502H33.3333C34.2538 35.502 35 34.7558 35 33.8353V27.1686C35 26.2481 34.2538 25.502 33.3333 25.502H26.6667C25.7462 25.502 25 26.2481 25 27.1686V28.8353H21.6667V22.1686H28.3333C29.2538 22.1686 30 21.4224 30 20.502V7.16862C30 6.24815 29.2538 5.50195 28.3333 5.50195H11.6667ZM13.3333 18.8353V8.83529H26.6667V18.8353H13.3333ZM8.33333 32.1686V28.8353H11.6667V32.1686H8.33333ZM28.3333 28.8353V32.1686H31.6667V28.8353H28.3333Z" fill="#FF7039"/>
</svg>
