<svg width="117" height="24" viewBox="0 0 117 24" fill="none" xmlns="http://www.w3.org/2000/svg">
<path d="M31.168 18.238C29.9893 18.238 28.9977 17.9773 28.193 17.456C27.3883 16.9233 26.8217 16.2037 26.493 15.297L28.499 14.124C28.9637 15.3367 29.876 15.943 31.236 15.943C31.8933 15.943 32.375 15.824 32.681 15.586C32.987 15.348 33.14 15.0477 33.14 14.685C33.14 14.2657 32.953 13.9427 32.579 13.716C32.205 13.478 31.5363 13.223 30.573 12.951C30.0403 12.7923 29.587 12.6337 29.213 12.475C28.8503 12.3163 28.482 12.1067 28.108 11.846C27.7453 11.574 27.4677 11.234 27.275 10.826C27.0823 10.418 26.986 9.942 26.986 9.398C26.986 8.32133 27.3657 7.46567 28.125 6.831C28.8957 6.185 29.8193 5.862 30.896 5.862C31.8593 5.862 32.7037 6.1 33.429 6.576C34.1657 7.04067 34.738 7.69233 35.146 8.531L33.174 9.67C32.698 8.65 31.9387 8.14 30.896 8.14C30.4087 8.14 30.0233 8.25333 29.74 8.48C29.468 8.69533 29.332 8.97867 29.332 9.33C29.332 9.704 29.485 10.01 29.791 10.248C30.1083 10.4747 30.709 10.724 31.593 10.996C31.9557 11.1093 32.2277 11.2 32.409 11.268C32.6017 11.3247 32.8567 11.421 33.174 11.557C33.5027 11.6817 33.752 11.8007 33.922 11.914C34.1033 12.0273 34.3073 12.1803 34.534 12.373C34.7607 12.5657 34.9307 12.764 35.044 12.968C35.1687 13.172 35.2707 13.4213 35.35 13.716C35.4407 13.9993 35.486 14.311 35.486 14.651C35.486 15.7503 35.0837 16.623 34.279 17.269C33.4857 17.915 32.4487 18.238 31.168 18.238ZM39.6531 6.1H41.9991V18H39.6531V6.1ZM54.113 11.829C55.1556 12.4297 55.677 13.3363 55.677 14.549C55.677 15.5577 55.32 16.385 54.606 17.031C53.892 17.677 53.0136 18 51.971 18H46.922V6.1H51.614C52.634 6.1 53.4896 6.41733 54.181 7.052C54.8836 7.67533 55.235 8.47433 55.235 9.449C55.235 10.435 54.861 11.2283 54.113 11.829ZM51.614 8.293H49.268V10.911H51.614C51.9766 10.911 52.277 10.7863 52.515 10.537C52.7643 10.2877 52.889 9.976 52.889 9.602C52.889 9.228 52.77 8.91633 52.532 8.667C52.294 8.41767 51.988 8.293 51.614 8.293ZM51.971 15.807C52.3676 15.807 52.6963 15.6767 52.957 15.416C53.2176 15.144 53.348 14.804 53.348 14.396C53.348 13.9993 53.2176 13.6707 52.957 13.41C52.6963 13.138 52.3676 13.002 51.971 13.002H49.268V15.807H51.971ZM62.2809 15.756H67.2959V18H59.9349V6.1H67.2109V8.344H62.2809V10.877H66.7859V13.087H62.2809V15.756ZM78.1976 18L75.8006 13.869H74.0156V18H71.6696V6.1H76.4296C77.5289 6.1 78.4639 6.48533 79.2346 7.256C80.0052 8.02667 80.3906 8.956 80.3906 10.044C80.3906 10.7807 80.1809 11.4663 79.7616 12.101C79.3422 12.7243 78.7869 13.1947 78.0956 13.512L80.7306 18H78.1976ZM74.0156 8.293V11.812H76.4296C76.8716 11.812 77.2512 11.642 77.5686 11.302C77.8859 10.9507 78.0446 10.5313 78.0446 10.044C78.0446 9.55667 77.8859 9.143 77.5686 8.803C77.2512 8.463 76.8716 8.293 76.4296 8.293H74.0156ZM84.832 6.1H87.178V18H84.832V6.1ZM99.7508 18L99.0368 15.858H94.2938L93.5798 18H91.0468L95.2118 6.1H98.1188L102.301 18H99.7508ZM95.0418 13.665H98.3058L96.6738 8.803L95.0418 13.665ZM113.061 6.1H115.407V18H113.622L108.522 10.724V18H106.176V6.1H107.961L113.061 13.359V6.1Z" fill="black" fill-opacity="0.8"/>
<path d="M0 5L8.63755 8.35905C8.87068 8.44971 9.12932 8.44971 9.36245 8.35905L18 5L9 19L0 5Z" fill="#1076FF"/>
</svg>
