<svg width="30" height="22" viewBox="0 0 30 22" fill="none" xmlns="http://www.w3.org/2000/svg">
<path fill-rule="evenodd" clip-rule="evenodd" d="M17.6926 0.271745C18.1616 0.280998 18.5913 0.53602 18.824 0.9433L29.4907 19.61C29.7265 20.0226 29.7248 20.5296 29.4862 20.9407C29.2477 21.3518 28.8083 21.6048 28.333 21.6048H1.66634C1.20424 21.6048 0.775084 21.3656 0.532142 20.9725C0.289199 20.5794 0.267114 20.0885 0.473773 19.6752L7.14044 6.34187C7.3663 5.89016 7.82798 5.60482 8.33301 5.60482C8.83804 5.60482 9.29972 5.89016 9.52558 6.34187L11.129 9.54878L16.5357 0.898153C16.7843 0.50037 17.2236 0.262492 17.6926 0.271745ZM16.0927 6.6384L17.628 7.86666L19.0153 6.65283L17.6151 4.20255L16.0927 6.6384ZM20.3651 9.01509L18.5443 10.6083C18.0584 11.0335 17.3376 11.0493 16.8334 10.646L14.6698 8.91506L12.1303 12.9782C11.8747 13.3871 11.4182 13.6262 10.9364 13.6033C10.4546 13.5804 10.0228 13.2992 9.80711 12.8678L8.33301 9.91958L3.82372 18.9382H26.0354L20.3651 9.01509Z" fill="white"/>
</svg>
