<svg width="32" height="33" viewBox="0 0 32 33" fill="none" xmlns="http://www.w3.org/2000/svg">
<g clip-path="url(#clip0_274_2485)">
<path d="M16 32.5703C15.2 32.5703 14.6667 32.037 14.6667 31.237C14.6667 23.9036 8.66667 17.9036 1.33333 17.9036C0.533333 17.9036 0 17.3703 0 16.5703C0 15.7703 0.533333 15.237 1.33333 15.237C8.66667 15.237 14.6667 9.23698 14.6667 1.90365C14.6667 1.10365 15.2 0.570312 16 0.570312C16.8 0.570312 17.3333 1.10365 17.3333 1.90365C17.3333 9.23698 23.3333 15.237 30.6667 15.237C31.4667 15.237 32 15.7703 32 16.5703C32 17.3703 31.4667 17.9036 30.6667 17.9036C23.3333 17.9036 17.3333 23.9036 17.3333 31.237C17.3333 32.037 16.8 32.5703 16 32.5703ZM7.73333 16.5703C11.4667 18.1703 14.4 21.1036 16 24.837C17.6 21.1036 20.5333 18.1703 24.2667 16.5703C20.5333 14.9703 17.6 12.037 16 8.30365C14.4 12.037 11.4667 14.9703 7.73333 16.5703Z" fill="white"/>
</g>
<defs>
<clipPath id="clip0_274_2485">
<rect width="32" height="32" fill="white" transform="translate(0 0.570312)"/>
</clipPath>
</defs>
</svg>
