<svg width="51" height="51" viewBox="0 0 51 51" fill="none" xmlns="http://www.w3.org/2000/svg">
<rect x="2.15234" y="0.759766" width="48" height="48" rx="24" transform="rotate(2.07 2.15234 0.759766)" fill="url(#paint0_linear_274_2501)"/>
<path d="M20.952 17.4557C20.6739 17.4474 20.4039 17.5496 20.201 17.7399C19.998 17.9302 19.8787 18.1931 19.8692 18.4712L19.713 22.7903C19.7025 23.0683 19.8025 23.3392 19.9912 23.5436C20.1799 23.7481 20.4418 23.8695 20.7198 23.8812C21.2938 23.902 21.7817 23.445 21.8026 22.8659L21.9588 18.5467C21.9816 17.9146 21.526 17.4765 20.952 17.4557Z" fill="white"/>
<path d="M24.2587 15.7311C23.684 15.7104 23.1967 16.1674 23.1758 16.7472L23.0026 21.5397C22.9816 22.1195 23.4346 22.6106 24.0093 22.6313C24.5832 22.6521 25.0712 22.1951 25.0922 21.6152L25.2654 16.8227C25.2863 16.2429 24.8326 15.7519 24.2587 15.7311Z" fill="white"/>
<path d="M40.4051 16.155C39.8305 16.1342 39.3432 16.5912 39.3223 17.171L38.9739 26.8096C38.953 27.3888 39.406 27.8797 39.9806 27.9005C40.5553 27.9213 41.0425 27.4643 41.0635 26.8851L41.4119 17.2465C41.4328 16.6667 40.9798 16.1757 40.4051 16.155Z" fill="white"/>
<path d="M27.537 14.6882C26.963 14.6674 26.4751 15.1244 26.4541 15.7036L26.2657 20.9179C26.2447 21.4971 26.6984 21.9881 27.2724 22.0089C27.847 22.0296 28.3343 21.5726 28.3552 20.9934L28.5437 15.7791C28.5646 15.1999 28.1116 14.7089 27.537 14.6882Z" fill="white"/>
<path d="M37.2635 14.776C36.6889 14.7553 36.2016 15.2123 36.1807 15.7921L35.8894 23.8506C35.8685 24.4297 36.3215 24.9208 36.8961 24.9415C37.4701 24.9623 37.9581 24.5053 37.979 23.9261L38.2703 15.8676C38.239 15.2859 37.8375 14.7968 37.2635 14.776Z" fill="white"/>
<path d="M30.7997 14.1745C30.225 14.1537 29.7377 14.6107 29.7168 15.1899L29.5093 20.9311C29.4884 21.5103 29.9414 22.0013 30.516 22.022C31.09 22.0428 31.578 21.5858 31.5989 21.0067L31.8064 15.2654C31.8273 14.6863 31.3737 14.1952 30.7997 14.1745Z" fill="white"/>
<path d="M18.5392 24.8568L18.6648 21.3807C18.6857 20.8015 18.2321 20.3105 17.6581 20.2897C17.0834 20.2689 16.5961 20.726 16.5752 21.3052L16.4496 24.7813C16.4286 25.3611 16.8816 25.8522 17.4563 25.8729C18.0322 25.8408 18.5182 25.4367 18.5392 24.8568Z" fill="white"/>
<path d="M34.0409 14.1842C33.4669 14.1635 32.979 14.6205 32.958 15.2003L32.7162 21.889C32.6953 22.4687 33.149 22.9598 33.723 22.9805C34.2976 23.0013 34.7849 22.5443 34.8058 21.9645L35.0476 15.2758C35.0686 14.696 34.6155 14.205 34.0409 14.1842Z" fill="white"/>
<path d="M28.4334 28.9608C28.4543 28.3816 28.0006 27.8905 27.4266 27.8698C26.852 27.849 26.3647 28.3061 26.3438 28.8852L26.1705 33.6784C26.1496 34.2575 26.6026 34.7486 27.1773 34.7693C27.7512 34.7901 28.2392 34.3331 28.2601 33.7539L28.4334 28.9608Z" fill="white"/>
<path d="M18.7713 28.5584C18.7922 27.9792 18.3392 27.4882 17.7645 27.4675C17.1905 27.4467 16.7026 27.9037 16.6817 28.4828L16.438 35.2243C16.417 35.8042 16.8707 36.2952 17.4447 36.316C18.0193 36.3367 18.5066 35.8797 18.5276 35.2999L18.7713 28.5584Z" fill="white"/>
<path d="M25.2224 29.5819C25.2434 29.0027 24.7903 28.5117 24.2157 28.4909C23.6417 28.4701 23.1538 28.9272 23.1328 29.5063L22.9444 34.7207C22.9234 35.2998 23.3771 35.7908 23.9511 35.8116C24.5257 35.8323 25.013 35.3753 25.034 34.7962L25.2224 29.5819Z" fill="white"/>
<path d="M31.7205 27.7615C31.7414 27.1823 31.2884 26.6913 30.7137 26.6706C30.1391 26.6498 29.6518 27.1068 29.6309 27.686L29.4748 32.0051C29.4538 32.5843 29.9069 33.0753 30.4815 33.0961C31.0561 33.1168 31.5434 32.6598 31.5644 32.0806L31.7205 27.7615Z" fill="white"/>
<path d="M15.5994 26.6508C15.6203 26.071 15.1666 25.58 14.5926 25.5592C14.018 25.5385 13.5307 25.9955 13.5098 26.5753L13.2185 34.6338C13.1976 35.2129 13.6506 35.704 14.2252 35.7247C14.7992 35.7455 15.2872 35.2885 15.3081 34.7093L15.5994 26.6508Z" fill="white"/>
<path d="M21.9812 29.5173C22.0021 28.9382 21.5485 28.4472 20.9745 28.4264C20.3998 28.4057 19.9126 28.8627 19.8916 29.4418L19.6841 35.1831C19.6632 35.7622 20.1162 36.2532 20.6908 36.274C21.2648 36.2947 21.7528 35.8378 21.7737 35.2586L21.9812 29.5173Z" fill="white"/>
<path d="M12.4617 23.6893C12.4826 23.1101 12.0296 22.6191 11.455 22.5983C10.881 22.5776 10.393 23.0346 10.3721 23.6138L10.0256 33.2001C10.0047 33.7792 10.4583 34.2703 11.0323 34.291C11.607 34.3118 12.0943 33.8548 12.1152 33.2756L12.4617 23.6893Z" fill="white"/>
<path d="M35.0388 25.7192C35.0598 25.1394 34.6061 24.6484 34.0321 24.6276C33.4568 24.6068 32.9702 25.0639 32.9492 25.6436L32.8236 29.1199C32.813 29.3979 32.913 29.6687 33.1016 29.8732C33.2903 30.0777 33.5523 30.1991 33.8303 30.2108C34.4043 30.2316 34.8922 29.7746 34.9132 29.1954L35.0388 25.7192Z" fill="white"/>
<defs>
<linearGradient id="paint0_linear_274_2501" x1="-9.27623" y1="25.1407" x2="60.4381" y2="33.9026" gradientUnits="userSpaceOnUse">
<stop stop-color="#00D1DB"/>
<stop offset="1" stop-color="#00AEE1"/>
</linearGradient>
</defs>
</svg>
