<svg width="51" height="51" viewBox="0 0 51 51" fill="none" xmlns="http://www.w3.org/2000/svg">
<rect x="2.15332" y="0.736328" width="48" height="48" rx="24" transform="rotate(2.07 2.15332 0.736328)" fill="#0404A6"/>
<path d="M33.9987 27.3748C29.2472 28.3351 25.8242 32.2112 24.8362 38.6658C24.3154 32.1944 21.1825 28.0436 16.5126 26.7427C15.8661 21.6629 20.5114 17.3781 25.599 17.562C30.6851 17.7836 34.9727 22.3535 33.9987 27.3748ZM40.6469 26.1434C40.9533 17.6642 34.3061 10.5185 25.8268 10.212C17.3476 9.90552 10.2019 16.5527 9.89543 25.0319C9.58896 33.5111 16.2362 40.6568 24.7154 40.9633C33.231 41.3088 40.339 34.6603 40.6469 26.1434Z" fill="white"/>
</svg>
