<svg width="51" height="50" viewBox="0 0 51 50" fill="none" xmlns="http://www.w3.org/2000/svg">
<rect x="0.797852" y="1.86133" width="48" height="48" rx="24" transform="rotate(-2.07 0.797852 1.86133)" fill="#15B0F5"/>
<path d="M27.9428 25.4666C27.91 25.4403 27.8833 25.4073 27.8645 25.3698C27.8456 25.3323 27.8351 25.2912 27.8336 25.2493C27.8321 25.2073 27.8396 25.1656 27.8557 25.1268C27.8718 25.0881 27.896 25.0532 27.9268 25.0247C28.0239 24.9439 28.1103 24.851 28.1839 24.7482L28.1821 24.6982L31.256 17.3577C31.2587 17.3271 31.2576 17.2963 31.2527 17.266L29.5019 17.3292C29.3594 17.3333 29.2211 17.3787 29.1039 17.46C28.9868 17.5414 28.8959 17.655 28.8423 17.7872L26.3936 23.7194C26.2925 23.9234 26.0479 24.3162 25.8311 24.3241L24.9974 24.3542C24.7473 24.3632 24.4753 23.9974 24.3757 23.7839L21.3051 18.0513C21.2343 17.9251 21.13 17.8209 21.0037 17.7504C20.8774 17.6798 20.734 17.6455 20.5894 17.6514L18.8386 17.7147C18.8323 17.7479 18.8336 17.7821 18.8423 17.8147L22.5759 24.8007C22.6643 24.9597 22.7828 25.1001 22.9248 25.2138C22.9573 25.2393 22.9839 25.2716 23.0027 25.3084C23.0214 25.3452 23.0319 25.3857 23.0334 25.4269C23.0349 25.4682 23.0274 25.5094 23.0113 25.5474C22.9952 25.5855 22.971 25.6196 22.9404 25.6474C22.7989 25.7826 22.683 25.9423 22.5985 26.1189L19.691 32.7522L21.6253 32.6822C21.745 32.6778 21.8612 32.6399 21.9606 32.5729C22.0599 32.5058 22.1386 32.4123 22.1876 32.303L24.4986 26.9518C24.5831 26.7484 24.8304 26.4306 25.0805 26.4215L25.9142 26.3914C26.131 26.3835 26.4003 26.6743 26.5159 26.8705L29.2069 32.0325C29.2615 32.1382 29.345 32.226 29.4477 32.2859C29.5504 32.3458 29.668 32.3751 29.7868 32.3706L31.6793 32.3022L28.2731 25.8303C28.1861 25.6873 28.0773 25.5588 27.9505 25.4496" fill="white"/>
<path d="M25.9294 18.5096L24.3203 18.5677C24.2297 18.571 24.144 18.6102 24.0823 18.6766C24.0205 18.743 23.9876 18.8312 23.9909 18.9219L24.0487 20.5226C24.052 20.6141 24.0909 20.7006 24.1572 20.7637C24.2234 20.8269 24.3117 20.8616 24.4032 20.8605L26.0123 20.8023C26.0594 20.8029 26.106 20.7938 26.1494 20.7755C26.1928 20.7573 26.232 20.7303 26.2644 20.6962C26.2969 20.6621 26.322 20.6217 26.3381 20.5775C26.3542 20.5332 26.361 20.4862 26.3581 20.4392L26.3003 18.8384C26.297 18.7478 26.2578 18.6621 26.1914 18.6003C26.125 18.5386 26.0368 18.5057 25.9461 18.509" fill="white"/>
<path d="M17.9879 29.767L12.8355 29.9532C12.6143 29.9612 12.3991 29.881 12.2371 29.7303C12.0751 29.5796 11.9796 29.3707 11.9716 29.1496L11.8725 26.4067L17.0415 26.2198C17.1348 26.2081 17.2204 26.1618 17.2811 26.09C17.3419 26.0182 17.3736 25.9263 17.3698 25.8323L17.3095 24.1649L12.4489 24.3406C11.8904 24.3607 11.8271 24.6886 11.8251 24.864L11.725 22.096C11.717 21.8749 11.7972 21.6597 11.9479 21.4977C12.0986 21.3357 12.3075 21.2402 12.5286 21.2322L17.7143 21.0448C17.7658 21.0429 17.8164 21.0309 17.8632 21.0095C17.91 20.9881 17.9522 20.9577 17.9873 20.92C18.0223 20.8823 18.0496 20.838 18.0676 20.7898C18.0856 20.7415 18.0939 20.6902 18.092 20.6387L18.0318 18.9713L11.8956 19.1931C11.3346 19.2116 10.8 19.4358 10.3937 19.8231C9.98743 20.2103 9.73782 20.7335 9.69245 21.293L10.0025 29.8719C10.0027 30.1675 10.0637 30.4598 10.1818 30.7307C10.2999 31.0016 10.4725 31.2453 10.6889 31.4466C10.9053 31.6479 11.1608 31.8024 11.4395 31.9007C11.7183 31.9989 12.0142 32.0387 12.309 32.0175L18.4869 31.7942L18.4287 30.1851C18.4278 30.1286 18.4156 30.0727 18.3928 30.0209C18.37 29.9691 18.3372 29.9224 18.2961 29.8835C18.2551 29.8445 18.2066 29.8142 18.1537 29.7942C18.1008 29.7742 18.0444 29.7649 17.9879 29.767Z" fill="white"/>
<path d="M33.9482 27.1866C33.9568 27.5501 34.041 27.9079 34.1955 28.2372C34.3499 28.5664 34.5712 28.8599 34.8453 29.0989C35.1193 29.3379 35.4401 29.5173 35.7873 29.6255C36.1345 29.7338 36.5004 29.7685 36.8617 29.7276L37.6954 29.6975C38.0606 29.7145 38.4253 29.6551 38.7662 29.5232C39.1071 29.3913 39.4168 29.1897 39.6754 28.9313C39.9339 28.6729 40.1357 28.3633 40.2679 28.0225C40.4001 27.6817 40.4597 27.317 40.4429 26.9519L40.2757 22.3247C40.2109 20.5322 39.1013 19.629 37.3422 19.6926L36.5085 19.7227C34.7493 19.7863 33.7245 20.7667 33.7893 22.5591L33.9482 27.1866ZM37.2831 18.0585C40.2178 17.9524 42.0657 19.1879 42.1844 22.4728L42.335 26.6414C42.4303 29.2759 40.83 31.1954 37.7619 31.3063L36.9282 31.3364C33.9185 31.4452 32.1255 29.6484 32.0303 27.0138L31.8796 22.8452C31.7609 19.5604 33.5147 18.1947 36.4494 18.0886L37.2831 18.0585Z" fill="white"/>
</svg>
