<?xml version="1.0" encoding="utf-8"?><svg xmlns="http://www.w3.org/2000/svg" xmlns:xlink="http://www.w3.org/1999/xlink"><symbol viewBox="0 0 491 135" id="arrow-dashed-1" xmlns="http://www.w3.org/2000/svg">
    <path d="M481.638 134.354C481.142 135.018 480.202 135.154 479.539 134.659L468.721 126.582C468.057 126.087 467.921 125.147 468.417 124.483C468.912 123.819 469.852 123.683 470.516 124.178L480.131 131.358L487.311 121.742C487.806 121.078 488.746 120.942 489.41 121.437C490.074 121.933 490.21 122.873 489.715 123.537L481.638 134.354ZM478.481 130.551C478.353 129.733 478.912 128.966 479.73 128.837C480.549 128.709 481.316 129.269 481.445 130.087L478.481 130.551ZM480.031 121.901C480.185 122.715 479.65 123.499 478.836 123.653C478.022 123.807 477.237 123.272 477.084 122.458L480.031 121.901ZM475.902 116.603C475.728 115.793 476.244 114.996 477.054 114.822C477.864 114.648 478.661 115.163 478.835 115.973L475.902 116.603ZM477.063 108.35C477.264 109.153 476.776 109.968 475.973 110.17C475.169 110.371 474.355 109.883 474.153 109.08L477.063 108.35ZM472.568 103.132C472.343 102.335 472.807 101.506 473.604 101.281C474.402 101.056 475.23 101.52 475.456 102.317L472.568 103.132ZM473.063 94.4656C473.321 95.2527 472.892 96.1002 472.105 96.3584C471.318 96.6166 470.47 96.1878 470.212 95.4006L473.063 94.4656ZM468.292 89.8527C468.009 89.0744 468.41 88.2134 469.188 87.9296C469.966 87.6458 470.827 88.0467 471.111 88.825L468.292 89.8527ZM468.163 81.293C468.483 82.0569 468.124 82.936 467.36 83.2565C466.596 83.5769 465.717 83.2174 465.396 82.4535L468.163 81.293ZM462.936 76.8921C462.586 76.1413 462.91 75.2489 463.661 74.8988C464.412 74.5487 465.305 74.8736 465.655 75.6244L462.936 76.8921ZM462.072 68.4472C462.462 69.178 462.186 70.0867 461.455 70.4769C460.724 70.8671 459.815 70.591 459.425 69.8602L462.072 68.4472ZM456.518 64.688C456.097 63.9749 456.333 63.055 457.046 62.6334C457.759 62.2117 458.679 62.448 459.101 63.1611L456.518 64.688ZM454.69 56.2023C455.155 56.8876 454.977 57.8205 454.292 58.2859C453.606 58.7513 452.674 58.5731 452.208 57.8877L454.69 56.2023ZM448.789 53.1028C448.291 52.4406 448.424 51.5003 449.086 51.0024C449.748 50.5046 450.689 50.6378 451.187 51.2999L448.789 53.1028ZM446.062 44.9424C446.604 45.5693 446.535 46.5165 445.908 47.0581C445.281 47.5997 444.334 47.5307 443.792 46.9038L446.062 44.9424ZM439.769 42.4873C439.196 41.8898 439.215 40.9403 439.812 40.3664C440.41 39.7926 441.359 39.8118 441.933 40.4094L439.769 42.4873ZM436.142 34.7886C436.756 35.3442 436.804 36.2928 436.249 36.9072C435.693 37.5217 434.744 37.5695 434.13 37.0139L436.142 34.7886ZM429.573 33.1127C428.929 32.5913 428.83 31.6467 429.351 31.003C429.873 30.3593 430.817 30.2602 431.461 30.7817L429.573 33.1127ZM424.959 25.8879C425.638 26.3623 425.804 27.2974 425.33 27.9766C424.855 28.6558 423.92 28.8218 423.241 28.3475L424.959 25.8879ZM418.281 25.0745C417.578 24.6364 417.363 23.7113 417.801 23.0082C418.239 22.305 419.165 22.0902 419.868 22.5282L418.281 25.0745ZM412.805 18.4571C413.537 18.8463 413.814 19.7547 413.425 20.486C413.035 21.2173 412.127 21.4946 411.396 21.1053L412.805 18.4571ZM406.057 18.4306C405.307 18.0777 404.986 17.184 405.338 16.4345C405.691 15.685 406.585 15.3635 407.335 15.7164L406.057 18.4306ZM399.893 12.4929C400.663 12.7988 401.039 13.6708 400.733 14.4407C400.428 15.2106 399.555 15.5868 398.786 15.2809L399.893 12.4929ZM393.177 13.1958C392.395 12.9241 391.981 12.0695 392.252 11.2869C392.524 10.5043 393.379 10.0901 394.161 10.3618L393.177 13.1958ZM386.416 7.9116C387.212 8.13999 387.673 8.97069 387.444 9.76701C387.216 10.5633 386.385 11.0237 385.589 10.7953L386.416 7.9116ZM379.828 9.26283C379.023 9.06505 378.532 8.25256 378.729 7.44809C378.927 6.64362 379.74 6.1518 380.544 6.34959L379.828 9.26283ZM372.55 4.58873C373.363 4.74783 373.893 5.53588 373.734 6.34889C373.575 7.16189 372.787 7.69199 371.974 7.53288L372.55 4.58873ZM366.138 6.49031C365.32 6.35778 364.765 5.58742 364.897 4.76966C365.03 3.95191 365.8 3.39642 366.618 3.52895L366.138 6.49031ZM358.579 2.39541C359.401 2.49467 359.988 3.24187 359.888 4.06433C359.789 4.88679 359.042 5.47306 358.219 5.3738L358.579 2.39541ZM352.215 4.73591C351.39 4.65987 350.783 3.9295 350.859 3.10457C350.935 2.27964 351.666 1.67254 352.491 1.74857L352.215 4.73591ZM344.471 1.14939C345.298 1.19722 345.93 1.90645 345.882 2.7335C345.834 3.56054 345.125 4.19222 344.298 4.14438L344.471 1.14939ZM338.276 3.86893C337.448 3.84082 336.8 3.14685 336.828 2.3189C336.856 1.49095 337.55 0.842549 338.378 0.870654L338.276 3.86893ZM330.278 0.715721C331.107 0.71968 331.775 1.39445 331.771 2.22287C331.767 3.05129 331.092 3.71965 330.264 3.71569L330.278 0.715721ZM324.283 3.74766C323.455 3.76027 322.773 3.09901 322.76 2.27068C322.748 1.44235 323.409 0.760623 324.237 0.748005L324.283 3.74766ZM316.106 0.974366C316.934 0.941207 317.632 1.58536 317.665 2.41312C317.698 3.24089 317.054 3.9388 316.226 3.97196L316.106 0.974366ZM310.234 4.26356C309.407 4.31076 308.698 3.67855 308.651 2.85147C308.604 2.02438 309.236 1.31564 310.063 1.26843L310.234 4.26356ZM302.021 1.81282C302.846 1.7484 303.568 2.36573 303.633 3.19165C303.697 4.01757 303.08 4.73932 302.254 4.80374L302.021 1.81282ZM296.225 5.31837C295.4 5.39473 294.67 4.78793 294.593 3.96303C294.517 3.13813 295.124 2.40751 295.949 2.33114L296.225 5.31837ZM287.926 3.14636C288.749 3.05547 289.49 3.64932 289.581 4.47274C289.672 5.29617 289.078 6.03737 288.255 6.12825L287.926 3.14636ZM282.285 6.82432C281.463 6.92519 280.714 6.34039 280.613 5.51812C280.513 4.69586 281.097 3.94751 281.92 3.84664L282.285 6.82432ZM273.879 4.89501C274.7 4.78187 275.457 5.35543 275.57 6.1761C275.683 6.99676 275.11 7.75376 274.289 7.8669L273.879 4.89501ZM268.338 8.71861C267.519 8.8401 266.756 8.27428 266.634 7.45481C266.513 6.63534 267.079 5.87254 267.898 5.75104L268.338 8.71861ZM259.931 6.98373C260.749 6.85206 261.519 7.40836 261.651 8.22625C261.782 9.04415 261.226 9.81393 260.408 9.94559L259.931 6.98373ZM254.448 10.9315C253.631 11.0702 252.857 10.5204 252.718 9.7037C252.579 8.88695 253.129 8.11247 253.946 7.97384L254.448 10.9315ZM245.999 9.36553C246.814 9.21852 247.594 9.76025 247.741 10.5755C247.888 11.3908 247.347 12.1709 246.531 12.3179L245.999 9.36553ZM240.605 13.4082C239.791 13.5609 239.007 13.0246 238.854 12.2103C238.702 11.3961 239.238 10.6122 240.052 10.4596L240.605 13.4082ZM232.127 11.9805C232.94 11.8211 233.728 12.3508 233.888 13.1638C234.047 13.9767 233.517 14.765 232.704 14.9244L232.127 11.9805ZM226.784 16.1029C225.972 16.2668 225.181 15.7415 225.017 14.9294C224.853 14.1174 225.378 13.3262 226.19 13.1622L226.784 16.1029ZM218.29 14.7845C219.101 14.6153 219.896 15.1355 220.065 15.9465C220.234 16.7575 219.714 17.552 218.903 17.7212L218.29 14.7845ZM213.005 18.9647C212.195 19.1372 211.398 18.6203 211.226 17.81C211.053 16.9998 211.57 16.2031 212.38 16.0305L213.005 18.9647ZM204.491 17.731C205.3 17.5546 206.099 18.0678 206.276 18.8772C206.452 19.6866 205.939 20.4858 205.13 20.6622L204.491 17.731ZM199.225 21.9579C198.417 22.1366 197.616 21.6257 197.437 20.8168C197.259 20.0078 197.769 19.2072 198.578 19.0285L199.225 21.9579ZM190.734 20.7741C191.543 20.593 192.345 21.1016 192.526 21.91C192.707 22.7184 192.198 23.5205 191.39 23.7016L190.734 20.7741ZM185.488 25.0286C184.68 25.2109 183.877 24.7036 183.695 23.8955C183.512 23.0873 184.02 22.2844 184.828 22.1021L185.488 25.0286ZM176.95 23.8847C177.758 23.7015 178.561 24.2079 178.744 25.0159C178.928 25.8238 178.421 26.6272 177.613 26.8104L176.95 23.8847ZM171.749 28.1409C170.941 28.3242 170.138 27.8179 169.955 27.01C169.771 26.2021 170.278 25.3986 171.086 25.2153L171.749 28.1409ZM163.214 26.9986C164.022 26.816 164.825 27.323 165.008 28.131C165.191 28.9391 164.684 29.7422 163.876 29.9248L163.214 26.9986ZM157.96 31.2578C157.152 31.4393 156.349 30.9312 156.168 30.1229C155.987 29.3145 156.495 28.5122 157.303 28.3307L157.96 31.2578ZM149.503 30.0705C150.312 29.8914 151.113 30.402 151.292 31.2108C151.471 32.0197 150.961 32.8205 150.152 32.9996L149.503 30.0705ZM144.208 34.3058C143.399 34.4823 142.6 33.9692 142.423 33.1598C142.247 32.3504 142.76 31.5511 143.569 31.3747L144.208 34.3058ZM135.682 33.0723C136.492 32.9004 137.288 33.4179 137.46 34.2283C137.632 35.0387 137.115 35.8351 136.304 36.007L135.682 33.0723ZM130.456 37.2322C129.645 37.3999 128.851 36.8782 128.684 36.0669C128.516 35.2556 129.038 34.462 129.849 34.2943L130.456 37.2322ZM121.887 35.9049C122.7 35.7444 123.489 36.2731 123.649 37.0858C123.81 37.8985 123.281 38.6875 122.468 38.8481L121.887 35.9049ZM116.534 39.9964C115.72 40.1505 114.935 39.6155 114.781 38.8016C114.627 37.9876 115.162 37.2028 115.976 37.0488L116.534 39.9964ZM108.126 38.4847C108.942 38.341 109.72 38.8859 109.864 39.7017C110.007 40.5176 109.462 41.2955 108.647 41.4392L108.126 38.4847ZM102.595 42.47C101.777 42.6042 101.006 42.0503 100.872 41.2329C100.737 40.4154 101.291 39.6439 102.109 39.5096L102.595 42.47ZM94.2722 40.7263C95.092 40.6068 95.8533 41.1745 95.9728 41.9943C96.0922 42.8141 95.5245 43.5755 94.7048 43.6949L94.2722 40.7263ZM88.6247 44.5309C87.803 44.6367 87.0511 44.0565 86.9453 43.2349C86.8394 42.4132 87.4197 41.6613 88.2413 41.5555L88.6247 44.5309ZM80.2873 42.4785C81.1114 42.3941 81.8479 42.9938 81.9322 43.818C82.0166 44.6421 81.4169 45.3786 80.5928 45.4629L80.2873 42.4785ZM74.5889 46.0084C73.763 46.0735 73.0408 45.4567 72.9757 44.6308C72.9107 43.805 73.5275 43.0827 74.3533 43.0177L74.5889 46.0084ZM66.2952 43.5021C67.123 43.469 67.8209 44.1132 67.8541 44.9409C67.8872 45.7687 67.2431 46.4666 66.4153 46.4997L66.2952 43.5021ZM60.4442 46.6392C59.6158 46.644 58.9404 45.9762 58.9357 45.1478C58.9309 44.3194 59.5987 43.644 60.4271 43.6393L60.4442 46.6392ZM52.342 43.458C53.1693 43.502 53.8043 44.2082 53.7604 45.0355C53.7164 45.8627 53.0102 46.4977 52.1829 46.4538L52.342 43.458ZM46.1919 45.9803C45.3681 45.8924 44.7717 45.1533 44.8596 44.3296C44.9476 43.5058 45.6867 42.9094 46.5104 42.9973L46.1919 45.9803ZM38.609 41.7982C39.421 41.9622 39.9464 42.7534 39.7824 43.5654C39.6185 44.3775 38.8273 44.9029 38.0153 44.7389L38.609 41.7982ZM32.0511 43.2697C31.2565 43.0353 30.8023 42.2012 31.0367 41.4066C31.2711 40.612 32.1052 40.1579 32.8998 40.3923L32.0511 43.2697ZM25.629 37.6764C26.3803 38.0254 26.7065 38.9173 26.3576 39.6687C26.0086 40.42 25.1167 40.7463 24.3653 40.3973L25.629 37.6764ZM18.848 37.3641C18.1524 36.9142 17.9533 35.9856 18.4033 35.29C18.8532 34.5944 19.7818 34.3953 20.4774 34.8452L18.848 37.3641ZM14.5126 30.0452C15.0985 30.6308 15.0987 31.5806 14.5131 32.1665C13.9274 32.7524 12.9777 32.7526 12.3918 32.1669L14.5126 30.0452ZM8.32253 27.3534C7.84224 26.6784 8.00012 25.7418 8.67512 25.2616C9.35011 24.7813 10.2867 24.9392 10.7669 25.6142L8.32253 27.3534ZM7.01361 18.9715C7.34782 19.7295 7.0043 20.6149 6.2463 20.9492C5.4883 21.2834 4.60286 20.9399 4.26861 20.1819L7.01361 18.9715ZM2.12926 14.2752C1.89762 13.4798 2.35463 12.6472 3.15001 12.4156C3.94543 12.184 4.77797 12.641 5.00961 13.4364L2.12926 14.2752ZM3.38495 5.83683C3.5039 6.65667 2.9357 7.41771 2.11587 7.53666C1.29603 7.6556 0.534994 7.08741 0.416044 6.26757L3.38495 5.83683ZM478.952 133.672C478.799 132.624 478.643 131.584 478.481 130.551L481.445 130.087C481.608 131.131 481.767 132.182 481.92 133.242L478.952 133.672ZM477.084 122.458C476.709 120.476 476.315 118.524 475.902 116.603L478.835 115.973C479.253 117.919 479.652 119.895 480.031 121.901L477.084 122.458ZM474.153 109.08C473.647 107.062 473.118 105.079 472.568 103.132L475.456 102.317C476.014 104.293 476.549 106.304 477.063 108.35L474.153 109.08ZM470.212 95.4006C469.594 93.5157 468.954 91.6666 468.292 89.8527L471.111 88.825C471.784 90.6702 472.434 92.5502 473.063 94.4656L470.212 95.4006ZM465.396 82.4535C464.601 80.558 463.781 78.7045 462.936 76.8921L465.655 75.6244C466.517 77.4728 467.353 79.3621 468.163 81.293L465.396 82.4535ZM459.425 69.8602C458.482 68.0933 457.513 66.3695 456.518 64.688L459.101 63.1611C460.118 64.8807 461.108 66.6425 462.072 68.4472L459.425 69.8602ZM452.208 57.8877C451.095 56.2482 449.955 54.6535 448.789 53.1028L451.187 51.2999C452.382 52.8895 453.55 54.5233 454.69 56.2023L452.208 57.8877ZM443.792 46.9038C442.479 45.3842 441.138 43.9124 439.769 42.4873L441.933 40.4094C443.338 41.8725 444.715 43.3831 446.062 44.9424L443.792 46.9038ZM434.13 37.0139C432.639 35.6657 431.119 34.3658 429.573 33.1127L431.461 30.7817C433.05 32.0687 434.61 33.4039 436.142 34.7886L434.13 37.0139ZM423.241 28.3475C421.614 27.2113 419.961 26.1207 418.281 25.0745L419.868 22.5282C421.591 23.6019 423.288 24.7213 424.959 25.8879L423.241 28.3475ZM411.396 21.1053C409.641 20.1712 407.861 19.28 406.057 18.4306L407.335 15.7164C409.182 16.5863 411.006 17.4994 412.805 18.4571L411.396 21.1053ZM398.786 15.2809C396.938 14.547 395.069 13.8524 393.177 13.1958L394.161 10.3618C396.093 11.0324 398.004 11.7423 399.893 12.4929L398.786 15.2809ZM385.589 10.7953C383.688 10.2501 381.767 9.73959 379.828 9.26283L380.544 6.34959C382.519 6.83523 384.477 7.35549 386.416 7.9116L385.589 10.7953ZM371.974 7.53288C370.045 7.15535 368.099 6.80817 366.138 6.49031L366.618 3.52895C368.611 3.85187 370.588 4.20476 372.55 4.58873L371.974 7.53288ZM358.219 5.3738C356.232 5.13394 354.23 4.92165 352.215 4.73591L352.491 1.74857C354.533 1.93683 356.563 2.15208 358.579 2.39541L358.219 5.3738ZM344.298 4.14438C342.302 4.02895 340.295 3.93745 338.276 3.86893L338.378 0.870654C340.42 0.939963 342.451 1.03254 344.471 1.14939L344.298 4.14438ZM330.264 3.71569C328.279 3.7062 326.286 3.71715 324.283 3.74766L324.237 0.748005C326.259 0.717202 328.273 0.70614 330.278 0.715721L330.264 3.71569ZM316.226 3.97196C314.236 4.05167 312.239 4.14914 310.234 4.26356L310.063 1.26843C312.084 1.15308 314.099 1.05478 316.106 0.974366L316.226 3.97196ZM302.254 4.80374C300.25 4.96 298.241 5.13181 296.225 5.31837L295.949 2.33114C297.978 2.14329 300.002 1.97024 302.021 1.81282L302.254 4.80374ZM288.255 6.12825C286.269 6.34742 284.279 6.57969 282.285 6.82432L281.92 3.84664C283.925 3.60059 285.928 3.3669 287.926 3.14636L288.255 6.12825ZM274.289 7.8669C272.308 8.13997 270.325 8.42411 268.338 8.71861L267.898 5.75104C269.894 5.45511 271.888 5.16952 273.879 4.89501L274.289 7.8669ZM260.408 9.94559C258.423 10.2652 256.436 10.5941 254.448 10.9315L253.946 7.97384C255.942 7.635 257.938 7.30472 259.931 6.98373L260.408 9.94559ZM246.531 12.3179C244.556 12.6741 242.581 13.0377 240.605 13.4082L240.052 10.4596C242.034 10.0879 244.017 9.72299 245.999 9.36553L246.531 12.3179ZM232.704 14.9244C230.73 15.3117 228.756 15.7047 226.784 16.1029L226.19 13.1622C228.168 12.763 230.147 12.3689 232.127 11.9805L232.704 14.9244ZM218.903 17.7212C216.935 18.1318 214.969 18.5465 213.005 18.9647L212.38 16.0305C214.348 15.6115 216.318 15.1959 218.29 14.7845L218.903 17.7212ZM205.13 20.6622C203.158 21.0918 201.19 21.5239 199.225 21.9579L198.578 19.0285C200.545 18.594 202.516 18.1612 204.491 17.731L205.13 20.6622ZM191.39 23.7016C189.418 24.1433 187.45 24.5859 185.488 25.0286L184.828 22.1021C186.791 21.6592 188.76 21.2162 190.734 20.7741L191.39 23.7016ZM177.613 26.8104C175.652 27.2551 173.698 27.6988 171.749 28.1409L171.086 25.2153C173.033 24.7733 174.989 24.3295 176.95 23.8847L177.613 26.8104ZM163.876 29.9248C161.896 30.3723 159.924 30.8169 157.96 31.2578L157.303 28.3307C159.265 27.8902 161.236 27.4459 163.214 26.9986L163.876 29.9248ZM150.152 32.9996C148.161 33.4404 146.179 33.8761 144.208 34.3058L143.569 31.3747C145.537 30.9457 147.515 30.5107 149.503 30.0705L150.152 32.9996ZM136.304 36.007C134.343 36.423 132.394 36.8318 130.456 37.2322L129.849 34.2943C131.781 33.895 133.725 33.4874 135.682 33.0723L136.304 36.007ZM122.468 38.8481C120.475 39.2417 118.497 39.6248 116.534 39.9964L115.976 37.0488C117.931 36.6788 119.901 36.2971 121.887 35.9049L122.468 38.8481ZM108.647 41.4392C106.611 41.7978 104.593 42.1419 102.595 42.47L102.109 39.5096C104.095 39.1835 106.101 38.8414 108.126 38.4847L108.647 41.4392ZM94.7048 43.6949C92.6552 43.9936 90.6281 44.2727 88.6247 44.5309L88.2413 41.5555C90.2273 41.2996 92.238 41.0227 94.2722 40.7263L94.7048 43.6949ZM80.5928 45.4629C78.5637 45.6706 76.562 45.853 74.5889 46.0084L74.3533 43.0177C76.3016 42.8642 78.28 42.684 80.2873 42.4785L80.5928 45.4629ZM66.4153 46.4997C64.3898 46.5809 62.3989 46.6281 60.4442 46.6392L60.4271 43.6393C62.3452 43.6284 64.3017 43.582 66.2952 43.5021L66.4153 46.4997ZM52.1829 46.4538C50.1387 46.3452 48.1409 46.1885 46.1919 45.9803L46.5104 42.9973C48.4026 43.1994 50.347 43.3521 52.342 43.458L52.1829 46.4538ZM38.0153 44.7389C35.9595 44.3238 33.9702 43.8358 32.0511 43.2697L32.8998 40.3923C34.7284 40.9316 36.6322 41.3991 38.609 41.7982L38.0153 44.7389ZM24.3653 40.3973C22.428 39.4976 20.5868 38.4889 18.848 37.3641L20.4774 34.8452C22.0919 35.8896 23.81 36.8317 25.629 37.6764L24.3653 40.3973ZM12.3918 32.1669C10.9154 30.6912 9.55716 29.0886 8.32253 27.3534L10.7669 25.6142C11.9043 27.2128 13.1543 28.6874 14.5126 30.0452L12.3918 32.1669ZM4.26861 20.1819C3.4489 18.3229 2.73498 16.3552 2.12926 14.2752L5.00961 13.4364C5.58036 15.3963 6.24985 17.2394 7.01361 18.9715L4.26861 20.1819ZM0.416044 6.26757C0.261728 5.20394 0.130033 4.11647 0.0212029 3.00482L3.00692 2.71248C3.11139 3.77944 3.23753 4.82072 3.38495 5.83683L0.416044 6.26757Z"/>
</symbol><symbol viewBox="0 0 504 143" id="arrow-dashed-2" xmlns="http://www.w3.org/2000/svg">
    <path d="M3.5006 141.677C3.70033 142.481 4.51401 142.971 5.318 142.771L18.4198 139.516C19.2237 139.317 19.7136 138.503 19.5139 137.699C19.3141 136.895 18.5004 136.405 17.6965 136.605L6.05045 139.498L3.15726 127.852C2.95752 127.048 2.14384 126.558 1.33986 126.758C0.535867 126.958 0.0460209 127.771 0.245754 128.575L3.5006 141.677ZM7.86858 139.451C8.31119 138.751 8.1023 137.825 7.40202 137.382C6.70174 136.939 5.77525 137.148 5.33264 137.849L7.86858 139.451ZM9.93696 131.018C9.45336 131.691 9.6066 132.628 10.2792 133.112C10.9519 133.595 11.8892 133.442 12.3728 132.769L9.93696 131.018ZM15.9049 128.087C16.4191 127.437 16.3094 126.494 15.6598 125.98C15.0103 125.466 14.0669 125.575 13.5527 126.225L15.9049 128.087ZM18.8381 119.981C18.282 120.595 18.3289 121.544 18.9429 122.1C19.5569 122.656 20.5055 122.609 21.0616 121.995L18.8381 119.981ZM25.1865 117.671C25.7738 117.087 25.7762 116.137 25.192 115.55C24.6077 114.963 23.658 114.96 23.0707 115.545L25.1865 117.671ZM28.9762 110.068C28.3492 110.61 28.2798 111.557 28.8212 112.184C29.3626 112.811 30.3098 112.88 30.9368 112.339L28.9762 110.068ZM35.5955 108.535C36.2515 108.029 36.3731 107.088 35.8671 106.432C35.3611 105.776 34.4192 105.654 33.7632 106.16L35.5955 108.535ZM40.3767 101.434C39.6855 101.891 39.4954 102.822 39.952 103.513C40.4087 104.204 41.3392 104.394 42.0304 103.937L40.3767 101.434ZM47.0766 100.798C47.7917 100.38 48.0324 99.4613 47.6141 98.7462C47.1959 98.0311 46.2771 97.7905 45.562 98.2087L47.0766 100.798ZM52.7507 94.3438C52.0075 94.7099 51.7019 95.6091 52.068 96.3523C52.4341 97.0954 53.3333 97.4011 54.0765 97.035L52.7507 94.3438ZM59.4832 94.5441C60.2443 94.2169 60.596 93.3347 60.2689 92.5737C59.9417 91.8126 59.0595 91.4608 58.2984 91.788L59.4832 94.5441ZM65.868 88.828C65.087 89.1044 64.678 89.9615 64.9544 90.7425C65.2308 91.5235 66.0879 91.9325 66.8689 91.6561L65.868 88.828ZM72.5536 89.7943C73.3466 89.5548 73.7954 88.7178 73.5559 87.9247C73.3165 87.1317 72.4794 86.6829 71.6864 86.9224L72.5536 89.7943ZM79.5198 84.8072C78.7141 85 78.2174 85.8095 78.4102 86.6152C78.6031 87.4208 79.4126 87.9176 80.2182 87.7247L79.5198 84.8072ZM86.0529 86.4544C86.8658 86.2946 87.3951 85.506 87.2352 84.6931C87.0753 83.8803 86.2868 83.351 85.4739 83.5108L86.0529 86.4544ZM93.5208 82.1413C92.701 82.2599 92.1325 83.0208 92.2511 83.8407C92.3698 84.6605 93.1306 85.229 93.9505 85.1104L93.5208 82.1413ZM99.8417 84.3624C100.665 84.272 101.26 83.5312 101.169 82.7077C101.079 81.8843 100.338 81.2899 99.5146 81.3803L99.8417 84.3624ZM107.635 80.6671C106.809 80.7223 106.183 81.4371 106.239 82.2637C106.294 83.0902 107.008 83.7156 107.835 83.6605L107.635 80.6671ZM113.813 83.35C114.641 83.3189 115.287 82.6227 115.256 81.7948C115.224 80.967 114.528 80.3211 113.7 80.3521L113.813 83.35ZM121.775 80.1943C120.946 80.1961 120.276 80.8692 120.278 81.6976C120.28 82.526 120.953 83.1961 121.781 83.1943L121.775 80.1943ZM127.839 83.2564C128.667 83.2749 129.354 82.6185 129.372 81.7903C129.391 80.9621 128.734 80.2757 127.906 80.2572L127.839 83.2564ZM135.947 80.5567C135.12 80.514 134.414 81.15 134.372 81.9773C134.329 82.8047 134.965 83.51 135.792 83.5527L135.947 80.5567ZM141.789 83.924C142.616 83.9834 143.334 83.3617 143.393 82.5354C143.452 81.7091 142.831 80.9911 142.004 80.9317L141.789 83.924ZM150.118 81.617C149.294 81.5373 148.561 82.1412 148.481 82.9658C148.401 83.7904 149.005 84.5234 149.83 84.6031L150.118 81.617ZM155.763 85.2262C156.586 85.3195 157.329 84.7277 157.422 83.9046C157.515 83.0814 156.923 82.3385 156.1 82.2453L155.763 85.2262ZM164.136 83.2389C163.315 83.1291 162.56 83.7058 162.45 84.5269C162.341 85.348 162.917 86.1027 163.738 86.2124L164.136 83.2389ZM169.733 87.0563C170.553 87.1774 171.315 86.6111 171.436 85.7915C171.557 84.972 170.991 84.2095 170.172 84.0885L169.733 87.0563ZM178.108 85.3279C177.29 85.1935 176.519 85.7473 176.384 86.5647C176.25 87.3822 176.804 88.1538 177.621 88.2882L178.108 85.3279ZM183.572 89.3008C184.388 89.4442 185.165 88.8991 185.309 88.0832C185.452 87.2672 184.907 86.4895 184.091 86.3461L183.572 89.3008ZM192.053 87.8014C191.239 87.6471 190.454 88.1819 190.3 88.9959C190.145 89.8098 190.68 90.5947 191.494 90.7489L192.053 87.8014ZM197.388 91.8934C198.201 92.0548 198.99 91.5269 199.152 90.7144C199.313 89.9018 198.785 89.1123 197.973 88.9509L197.388 91.8934ZM205.892 90.5683C205.081 90.3983 204.286 90.9179 204.116 91.7287C203.946 92.5395 204.465 93.3345 205.276 93.5045L205.892 90.5683ZM211.188 94.7651C211.997 94.9406 212.796 94.4265 212.971 93.6169C213.147 92.8073 212.633 92.0087 211.823 91.8332L211.188 94.7651ZM219.681 93.5702C218.873 93.3883 218.07 93.896 217.888 94.7042C217.706 95.5124 218.214 96.3151 219.022 96.497L219.681 93.5702ZM224.909 97.8383C225.716 98.0243 226.522 97.5207 226.708 96.7135C226.894 95.9062 226.39 95.1009 225.583 94.9149L224.909 97.8383ZM233.444 96.7509C232.638 96.5603 231.83 97.0593 231.639 97.8655C231.448 98.6717 231.947 99.4798 232.754 99.6704L233.444 96.7509ZM238.621 101.068C239.426 101.262 240.236 100.766 240.429 99.96C240.623 99.1544 240.127 98.3447 239.321 98.1513L238.621 101.068ZM247.154 100.047C246.349 99.8505 245.537 100.344 245.341 101.149C245.145 101.954 245.639 102.765 246.443 102.961L247.154 100.047ZM252.31 104.397C253.115 104.595 253.927 104.103 254.125 103.298C254.323 102.494 253.831 101.681 253.026 101.484L252.31 104.397ZM260.857 103.413C260.052 103.215 259.239 103.706 259.041 104.51C258.842 105.314 259.333 106.127 260.137 106.326L260.857 103.413ZM265.997 107.774C266.801 107.973 267.614 107.482 267.813 106.678C268.012 105.874 267.521 105.061 266.717 104.862L265.997 107.774ZM274.531 106.791C273.726 106.593 272.914 107.085 272.715 107.889C272.517 108.693 273.009 109.506 273.813 109.704L274.531 106.791ZM279.699 111.15C280.504 111.347 281.316 110.855 281.513 110.05C281.71 109.246 281.217 108.434 280.413 108.237L279.699 111.15ZM288.223 110.137C287.418 109.943 286.607 110.438 286.413 111.243C286.218 112.048 286.713 112.859 287.518 113.053L288.223 110.137ZM293.381 114.46C294.187 114.653 294.996 114.155 295.188 113.349C295.38 112.543 294.882 111.734 294.076 111.542L293.381 114.46ZM301.946 113.396C301.139 113.208 300.333 113.71 300.145 114.517C299.958 115.324 300.46 116.13 301.267 116.318L301.946 113.396ZM307.148 117.67C307.956 117.853 308.759 117.347 308.943 116.539C309.126 115.731 308.62 114.928 307.812 114.744L307.148 117.67ZM315.648 116.492C314.838 116.315 314.039 116.827 313.862 117.637C313.685 118.446 314.198 119.245 315.007 119.422L315.648 116.492ZM320.96 120.701C321.77 120.872 322.566 120.354 322.737 119.543C322.908 118.733 322.39 117.937 321.579 117.766L320.96 120.701ZM329.42 119.375C328.607 119.213 327.817 119.741 327.655 120.553C327.493 121.366 328.021 122.156 328.833 122.318L329.42 119.375ZM334.773 123.472C335.587 123.625 336.372 123.09 336.526 122.276C336.68 121.462 336.145 120.678 335.331 120.524L334.773 123.472ZM343.279 121.967C342.463 121.825 341.686 122.372 341.544 123.188C341.403 124.004 341.949 124.781 342.766 124.923L343.279 121.967ZM348.696 125.914C349.514 126.045 350.284 125.488 350.415 124.671C350.546 123.853 349.99 123.083 349.172 122.952L348.696 125.914ZM357.14 124.153C356.32 124.038 355.561 124.609 355.446 125.43C355.331 126.25 355.902 127.008 356.723 127.124L357.14 124.153ZM362.752 127.921C363.574 128.022 364.323 127.438 364.424 126.616C364.526 125.794 363.942 125.045 363.12 124.943L362.752 127.921ZM370.996 125.82C370.172 125.739 369.438 126.342 369.357 127.166C369.275 127.991 369.878 128.725 370.702 128.806L370.996 125.82ZM376.843 129.345C377.669 129.408 378.39 128.79 378.453 127.964C378.516 127.138 377.898 126.417 377.072 126.354L376.843 129.345ZM385.025 126.838C384.197 126.801 383.496 127.442 383.46 128.27C383.423 129.098 384.064 129.798 384.892 129.835L385.025 126.838ZM390.963 130.023C391.791 130.037 392.474 129.377 392.488 128.549C392.502 127.721 391.842 127.038 391.014 127.024L390.963 130.023ZM399.048 126.997C398.219 127.017 397.565 127.705 397.585 128.533C397.606 129.362 398.294 130.016 399.122 129.996L399.048 126.997ZM405.107 129.746C405.934 129.696 406.564 128.986 406.515 128.159C406.466 127.332 405.756 126.702 404.929 126.751L405.107 129.746ZM412.973 126.059C412.15 126.153 411.558 126.896 411.652 127.719C411.746 128.542 412.489 129.134 413.312 129.04L412.973 126.059ZM419.308 128.222C420.126 128.092 420.683 127.323 420.553 126.505C420.422 125.687 419.653 125.129 418.835 125.26L419.308 128.222ZM426.672 123.739C425.865 123.925 425.361 124.731 425.547 125.538C425.733 126.345 426.539 126.849 427.346 126.663L426.672 123.739ZM433.253 125.126C434.048 124.894 434.505 124.062 434.274 123.267C434.042 122.471 433.21 122.014 432.414 122.246L433.253 125.126ZM439.915 119.722C439.142 120.02 438.756 120.888 439.054 121.661C439.351 122.434 440.219 122.819 440.992 122.522L439.915 119.722ZM446.644 120.124C447.395 119.774 447.72 118.882 447.37 118.131C447.02 117.38 446.128 117.055 445.377 117.405L446.644 120.124ZM452.344 113.74C451.63 114.161 451.394 115.081 451.815 115.794C452.236 116.508 453.156 116.744 453.869 116.323L452.344 113.74ZM459.042 112.995C459.721 112.52 459.886 111.585 459.412 110.906C458.937 110.227 458.002 110.061 457.323 110.536L459.042 112.995ZM463.527 105.7C462.901 106.243 462.833 107.19 463.375 107.816C463.918 108.442 464.865 108.51 465.491 107.968L463.527 105.7ZM469.965 103.78C470.548 103.191 470.543 102.242 469.954 101.659C469.365 101.076 468.415 101.081 467.832 101.67L469.965 103.78ZM473.117 95.7647C472.596 96.4084 472.695 97.3529 473.339 97.8744C473.982 98.3959 474.927 98.2968 475.448 97.6531L473.117 95.7647ZM479.092 92.8215C479.568 92.1435 479.404 91.208 478.726 90.732C478.048 90.256 477.112 90.4199 476.636 91.0979L479.092 92.8215ZM480.988 84.2692C480.573 84.9864 480.819 85.9039 481.536 86.3185C482.253 86.7332 483.17 86.4879 483.585 85.7707L480.988 84.2692ZM486.395 80.5721C486.768 79.8326 486.471 78.9304 485.732 78.557C484.992 78.1837 484.09 78.4804 483.717 79.2199L486.395 80.5721ZM487.061 71.952C486.741 72.7162 487.101 73.595 487.866 73.9149C488.63 74.2348 489.509 73.8746 489.828 73.1104L487.061 71.952ZM492.069 67.3695C492.352 66.5909 491.95 65.7304 491.171 65.4475C490.393 65.1646 489.532 65.5664 489.249 66.3451L492.069 67.3695ZM491.696 58.9662C491.457 59.7593 491.906 60.5963 492.699 60.8356C493.492 61.075 494.329 60.6261 494.568 59.833L491.696 58.9662ZM496.247 53.845C496.456 53.0432 495.975 52.2243 495.173 52.0159C494.371 51.8075 493.552 52.2886 493.344 53.0904L496.247 53.845ZM495.169 45.3358C494.997 46.1462 495.515 46.9425 496.325 47.1143C497.135 47.2861 497.932 46.7684 498.104 45.958L495.169 45.3358ZM499.245 40.1384C499.393 39.3232 498.852 38.5428 498.037 38.3952C497.221 38.2477 496.441 38.7889 496.293 39.6041L499.245 40.1384ZM497.587 31.5883C497.47 32.4084 498.04 33.1681 498.86 33.2851C499.68 33.4021 500.44 32.8321 500.557 32.012L497.587 31.5883ZM501.361 25.8031C501.457 24.9803 500.867 24.2354 500.045 24.1395C499.222 24.0435 498.477 24.6328 498.381 25.4556L501.361 25.8031ZM499.159 17.8088C499.087 18.6341 499.697 19.3616 500.523 19.4338C501.348 19.506 502.075 18.8954 502.148 18.0702L499.159 17.8088ZM502.611 12.0486C502.667 11.222 502.041 10.5071 501.215 10.4519C500.388 10.3966 499.673 11.0219 499.618 11.8485L502.611 12.0486ZM500.061 3.59616C500.027 4.42389 500.671 5.12241 501.498 5.15635C502.326 5.19029 503.025 4.5468 503.059 3.71907L500.061 3.59616ZM6.24144 142.089C6.77811 141.198 7.32051 140.318 7.86858 139.451L5.33264 137.849C4.77286 138.734 4.21904 139.632 3.67125 140.542L6.24144 142.089ZM12.3728 132.769C13.5284 131.162 14.706 129.602 15.9049 128.087L13.5527 126.225C12.3247 127.776 11.1192 129.374 9.93696 131.018L12.3728 132.769ZM21.0616 121.995C22.4129 120.503 23.7881 119.063 25.1865 117.671L23.0707 115.545C21.6351 116.973 20.2241 118.451 18.8381 119.981L21.0616 121.995ZM30.9368 112.339C32.4653 111.019 34.0184 109.752 35.5955 108.535L33.7632 106.16C32.1424 107.41 30.5465 108.712 28.9762 110.068L30.9368 112.339ZM42.0304 103.937C43.689 102.842 45.3713 101.796 47.0766 100.798L45.562 98.2087C43.81 99.2335 42.0813 100.308 40.3767 101.434L42.0304 103.937ZM54.0765 97.035C55.8564 96.1581 57.6589 95.3283 59.4832 94.5441L58.2984 91.788C56.4274 92.5922 54.5779 93.4437 52.7507 94.3438L54.0765 97.035ZM66.8689 91.6561C68.7433 90.9927 70.6385 90.3726 72.5536 89.7943L71.6864 86.9224C69.7274 87.5139 67.7876 88.1486 65.868 88.828L66.8689 91.6561ZM80.2182 87.7247C82.1451 87.2635 84.0903 86.8405 86.0529 86.4544L85.4739 83.5108C83.4724 83.9045 81.4874 84.3361 79.5198 84.8072L80.2182 87.7247ZM93.9505 85.1104C95.8989 84.8284 97.8629 84.5795 99.8417 84.3624L99.5146 81.3803C97.5025 81.601 95.5044 81.8543 93.5208 82.1413L93.9505 85.1104ZM107.835 83.6605C109.814 83.5284 111.807 83.4253 113.813 83.35L113.7 80.3521C111.667 80.4285 109.645 80.5331 107.635 80.6671L107.835 83.6605ZM121.781 83.1943C123.789 83.19 125.809 83.2111 127.839 83.2564L127.906 80.2572C125.852 80.2113 123.808 80.1899 121.775 80.1943L121.781 83.1943ZM135.792 83.5527C137.782 83.6556 139.781 83.7797 141.789 83.924L142.004 80.9317C139.977 80.786 137.958 80.6606 135.947 80.5567L135.792 83.5527ZM149.83 84.6031C151.8 84.7934 153.778 85.0014 155.763 85.2262L156.1 82.2453C154.1 82.0187 152.105 81.8089 150.118 81.617L149.83 84.6031ZM163.738 86.2124C165.731 86.4788 167.729 86.7604 169.733 87.0563L170.172 84.0885C168.154 83.7906 166.142 83.5071 164.136 83.2389L163.738 86.2124ZM177.621 88.2882C179.6 88.6134 181.584 88.9513 183.572 89.3008L184.091 86.3461C182.093 85.9947 180.098 85.655 178.108 85.3279L177.621 88.2882ZM191.494 90.7489C193.455 91.1206 195.42 91.5024 197.388 91.8934L197.973 88.9509C195.996 88.5582 194.023 88.1748 192.053 87.8014L191.494 90.7489ZM205.276 93.5045C207.244 93.9169 209.215 94.3374 211.188 94.7651L211.823 91.8332C209.844 91.4041 207.867 90.9822 205.892 90.5683L205.276 93.5045ZM219.022 96.497C220.983 96.9384 222.946 97.3858 224.909 97.8383L225.583 94.9149C223.615 94.4613 221.647 94.0128 219.681 93.5702L219.022 96.497ZM232.754 99.6704C234.709 100.133 236.665 100.599 238.621 101.068L239.321 98.1513C237.362 97.6811 235.403 97.214 233.444 96.7509L232.754 99.6704ZM246.443 102.961C248.4 103.438 250.356 103.917 252.31 104.397L253.026 101.484C251.07 101.003 249.112 100.524 247.154 100.047L246.443 102.961ZM260.137 106.326C262.092 106.809 264.045 107.292 265.997 107.774L266.717 104.862C264.766 104.38 262.812 103.896 260.857 103.413L260.137 106.326ZM273.813 109.704C275.778 110.188 277.74 110.671 279.699 111.15L280.413 108.237C278.455 107.757 276.494 107.275 274.531 106.791L273.813 109.704ZM287.518 113.053C289.476 113.526 291.431 113.996 293.381 114.46L294.076 111.542C292.129 111.078 290.178 110.61 288.223 110.137L287.518 113.053ZM301.267 116.318C303.232 116.775 305.193 117.226 307.148 117.67L307.812 114.744C305.862 114.301 303.907 113.852 301.946 113.396L301.267 116.318ZM315.007 119.422C316.998 119.857 318.982 120.284 320.96 120.701L321.579 117.766C319.609 117.35 317.632 116.925 315.648 116.492L315.007 119.422ZM328.833 122.318C330.821 122.714 332.801 123.099 334.773 123.472L335.331 120.524C333.369 120.153 331.398 119.77 329.42 119.375L328.833 122.318ZM342.766 124.923C344.752 125.267 346.729 125.598 348.696 125.914L349.172 122.952C347.218 122.638 345.253 122.309 343.279 121.967L342.766 124.923ZM356.723 127.124C358.744 127.408 360.754 127.674 362.752 127.921L363.12 124.943C361.139 124.699 359.146 124.435 357.14 124.153L356.723 127.124ZM370.702 128.806C372.763 129.009 374.81 129.189 376.843 129.345L377.072 126.354C375.062 126.2 373.037 126.021 370.996 125.82L370.702 128.806ZM384.892 129.835C386.932 129.926 388.956 129.989 390.963 130.023L391.014 127.024C389.036 126.99 387.039 126.928 385.025 126.838L384.892 129.835ZM399.122 129.996C401.136 129.946 403.132 129.863 405.107 129.746L404.929 126.751C402.99 126.866 401.029 126.948 399.048 126.997L399.122 129.996ZM413.312 129.04C415.335 128.809 417.334 128.538 419.308 128.222L418.835 125.26C416.907 125.568 414.953 125.834 412.973 126.059L413.312 129.04ZM427.346 126.663C429.344 126.202 431.314 125.691 433.253 125.126L432.414 122.246C430.531 122.794 428.617 123.291 426.672 123.739L427.346 126.663ZM440.992 122.522C442.911 121.784 444.795 120.985 446.644 120.124L445.377 117.405C443.592 118.236 441.771 119.008 439.915 119.722L440.992 122.522ZM453.869 116.323C455.633 115.281 457.357 114.173 459.042 112.995L457.323 110.536C455.702 111.67 454.042 112.737 452.344 113.74L453.869 116.323ZM465.491 107.968C467.023 106.641 468.514 105.246 469.965 103.78L467.832 101.67C466.436 103.081 465 104.424 463.527 105.7L465.491 107.968ZM475.448 97.6531C476.701 96.107 477.916 94.497 479.092 92.8215L476.636 91.0979C475.499 92.7179 474.326 94.2729 473.117 95.7647L475.448 97.6531ZM483.585 85.7707C484.555 84.0937 485.491 82.3613 486.395 80.5721L483.717 79.2199C482.838 80.9597 481.928 82.6423 480.988 84.2692L483.585 85.7707ZM489.828 73.1104C490.607 71.2506 491.354 69.3374 492.069 67.3695L489.249 66.3451C488.55 68.2692 487.821 70.1378 487.061 71.952L489.828 73.1104ZM494.568 59.833C495.156 57.8854 495.716 55.8897 496.247 53.845L493.344 53.0904C492.822 55.0985 492.273 57.0568 491.696 58.9662L494.568 59.833ZM498.104 45.958C498.507 44.0569 498.887 42.1173 499.245 40.1384L496.293 39.6041C495.94 41.5544 495.565 43.4647 495.169 45.3358L498.104 45.958ZM500.557 32.012C500.847 29.9807 501.115 27.9112 501.361 25.8031L498.381 25.4556C498.138 27.539 497.873 29.583 497.587 31.5883L500.557 32.012ZM502.148 18.0702C502.32 16.0949 502.475 14.0878 502.611 12.0486L499.618 11.8485C499.483 13.8678 499.33 15.8544 499.159 17.8088L502.148 18.0702ZM503.059 3.71907C503.102 2.65611 503.141 1.58497 503.175 0.505571L500.177 0.410384C500.143 1.48065 500.104 2.54256 500.061 3.59616L503.059 3.71907Z"/>
</symbol><symbol viewBox="0 0 20 17" id="arrow-right" xmlns="http://www.w3.org/2000/svg">
    <path d="M-6.13429e-05 7.32434L-6.14304e-05 9.32434L16.4853 9.32434L10.6526 14.8756L12.0314 16.3243L19.6894 9.03589C20.1032 8.64203 20.1036 7.98218 19.6902 7.58789L12.0322 0.283203L10.6518 1.73041L16.5163 7.32434L-6.13429e-05 7.32434Z" fill-opacity="0.8"/>
</symbol><symbol viewBox="0 0 36 37" id="arrow-up-blue" xmlns="http://www.w3.org/2000/svg">
    <path fill-rule="evenodd" clip-rule="evenodd" d="M24.6913 9.30469H11.8125V6.30469H28.3125C29.1409 6.30469 29.8125 6.97626 29.8125 7.80469V24.3047H26.8125V11.4261L8.37327 29.8654L6.25195 27.744L24.6913 9.30469Z"/>
</symbol><symbol viewBox="0 0 24 25" id="linkedin-icon" xmlns="http://www.w3.org/2000/svg">
    <path fill-rule="evenodd" clip-rule="evenodd" d="M5 4.19727H7.4V6.59727H5V4.19727ZM7.4 8.51688V7.79688H5V19.9969H7.4V12.5969V8.51688ZM19.4008 12.5969C19.4008 9.95688 17.2408 7.79688 14.6008 7.79688C13.7608 7.79688 12.9208 8.03687 12.2008 8.51688V7.79688H9.80078V19.9969H12.2008V12.5969C12.2008 11.2769 13.2808 10.1969 14.6008 10.1969C15.9208 10.1969 17.0008 11.2769 17.0008 12.5969V19.9969H19.4008V12.5969Z"/>
</symbol><symbol viewBox="0 0 24 25" id="map-icon" xmlns="http://www.w3.org/2000/svg">
    <g opacity="0.72">
        <path fill-rule="evenodd" clip-rule="evenodd" d="M12 2.50195C7.02944 2.50195 3 6.53139 3 11.502C3 14.8887 4.96368 17.7549 6.91789 19.7091C7.90756 20.6987 8.93174 21.4926 9.78487 22.0446C10.2107 22.3202 10.6063 22.5435 10.9442 22.7021C11.1127 22.7812 11.2794 22.8501 11.437 22.9012C11.5772 22.9466 11.7809 23.002 12 23.002C12.2191 23.002 12.4228 22.9466 12.563 22.9012C12.7206 22.8501 12.8873 22.7812 13.0558 22.7021C13.3937 22.5435 13.7893 22.3202 14.2151 22.0446C15.0683 21.4926 16.0924 20.6987 17.0821 19.7091C19.0363 17.7549 21 14.8887 21 11.502C21 6.53139 16.9706 2.50195 12 2.50195ZM5 11.502C5 7.63596 8.13401 4.50195 12 4.50195C15.866 4.50195 19 7.63596 19 11.502C19 14.1152 17.4637 16.4991 15.6679 18.2948C14.7826 19.1802 13.8692 19.8863 13.1286 20.3655C12.7576 20.6056 12.4422 20.7807 12.206 20.8916C12.1207 20.9317 12.0521 20.9603 12 20.9798C11.9479 20.9603 11.8794 20.9317 11.794 20.8916C11.5578 20.7807 11.2424 20.6056 10.8714 20.3655C10.1308 19.8863 9.21744 19.1802 8.33211 18.2948C6.53632 16.4991 5 14.1152 5 11.502ZM11.9067 21.01L11.9112 21.009C11.9082 21.0098 11.9067 21.01 11.9067 21.01ZM12.0933 21.01L12.0888 21.009L12.091 21.0095L12.0933 21.01Z" fill-opacity="0.8"/>
        <path d="M14 11.1973C14 10.0927 13.1046 9.19727 12 9.19727C10.8954 9.19727 10 10.0927 10 11.1973C10 12.3018 10.8954 13.1973 12 13.1973C13.1046 13.1973 14 12.3018 14 11.1973Z" fill-opacity="0.8"/>
    </g>
</symbol><symbol viewBox="0 0 42 43" id="quotes" xmlns="http://www.w3.org/2000/svg">
    <path d="M12.4373 34.0644L8.43959 34.2093L14.4526 20.6493L7.79064 20.8907L7.39844 10.0645L18.2247 9.67225L18.6169 20.4985L12.4373 34.0644Z" fill-opacity="0.8"/>
    <path d="M28.4265 33.4844L24.4288 33.6292L30.4419 20.0693L23.7799 20.3106L23.3877 9.48438L34.2139 9.09217L34.6061 19.9184L28.4265 33.4844Z" fill-opacity="0.8"/>
</symbol><symbol viewBox="0 0 22 19" id="telegram-icon" xmlns="http://www.w3.org/2000/svg">
    <path fill-rule="evenodd" clip-rule="evenodd" d="M21.1347 0.229232C21.4216 0.464863 21.5543 0.840014 21.4795 1.20362L17.9795 18.2036C17.9116 18.5333 17.6824 18.8068 17.3695 18.9312C17.0567 19.0556 16.7023 19.0142 16.4265 18.8212L12.0529 15.7596L9.64019 17.7702C9.38629 17.9818 9.04426 18.0542 8.72638 17.9638C8.4085 17.8734 8.15583 17.6317 8.05132 17.3182L6.20413 11.7766L1.15826 9.94176C0.771621 9.80116 0.510544 9.43812 0.500311 9.02684C0.490078 8.61556 0.732777 8.23998 1.11195 8.08033L20.1119 0.0803302C20.4541 -0.0637282 20.8479 -0.00639918 21.1347 0.229232ZM8.21113 11.4731L8.807 13.2607L9.02382 12.285C9.06213 12.1126 9.14541 11.9535 9.2652 11.8237L11.0391 9.902L8.21113 11.4731ZM10.6122 14.3567L11.3598 13.7337C11.7065 13.4448 12.2038 13.4239 12.5735 13.6827L16.3273 16.3104L19.1375 2.66067L4.23878 8.93382L6.91308 9.90629L15.5144 5.12781C15.9437 4.8893 16.4826 4.99784 16.7862 5.38393C17.0897 5.77002 17.0679 6.31937 16.7348 6.68025L10.9177 12.9821L10.6122 14.3567Z"/>
</symbol><symbol viewBox="0 0 24 25" id="vk-icon" xmlns="http://www.w3.org/2000/svg">
    <path fill-rule="evenodd" clip-rule="evenodd" d="M1.0009 6.54429L1.00105 6.54782L1.00152 6.55828L1.00329 6.59259C1.00486 6.62132 1.0073 6.66165 1.01092 6.7128C1.01815 6.81506 1.03014 6.96074 1.04952 7.14351C1.08824 7.50873 1.15666 8.02397 1.27623 8.6383C1.51439 9.86194 1.96043 11.5047 2.79674 13.1439C3.63401 14.7849 4.8776 16.4511 6.72145 17.6717C8.57615 18.8994 10.9757 19.6343 14.0434 19.501C14.5783 19.4777 15 19.0373 15 18.5019V17.9749V17.472C15.1749 17.6501 15.3315 17.8295 15.4691 18.0016C15.6892 18.2767 15.8534 18.5233 15.9608 18.6979C16.0144 18.7849 16.0533 18.8532 16.0775 18.8971C16.0897 18.919 16.0981 18.9348 16.1027 18.9437L16.1069 18.9518C16.2767 19.2894 16.622 19.5019 17 19.5019H22C22.3603 19.5019 22.6927 19.3081 22.8702 18.9946C23.0477 18.6811 23.0429 18.2963 22.8575 17.9874C22.7005 17.7258 22.5539 17.4795 22.4147 17.2457C21.8734 16.3363 20.6647 14.6075 19.3274 12.9335C20.3577 11.5559 21.0997 10.1479 21.5994 9.0373C21.8936 8.38363 22.1068 7.82645 22.2473 7.42955C22.3177 7.23094 22.37 7.072 22.4053 6.96065C22.423 6.90496 22.4364 6.86114 22.4458 6.83016L22.4567 6.79343L22.4599 6.78251L22.4613 6.77765C22.4613 6.77765 22.4615 6.77668 22.4749 6.72448L22.4615 6.77668C22.5477 6.47496 22.4873 6.15028 22.2984 5.89976C22.1094 5.64925 21.8138 5.50196 21.5 5.50195H17C16.5537 5.50195 16.1613 5.79777 16.0386 6.22688L16.0374 6.23094L16.0306 6.25386C16.0241 6.27533 16.0139 6.30889 15.9998 6.35323C15.9717 6.44198 15.9285 6.5735 15.8703 6.73725C15.7535 7.06576 15.5781 7.51868 15.3452 8.01362C15.2389 8.23951 15.1236 8.46749 15 8.69206V6.50259C15 5.95031 14.5523 5.50195 14 5.50195H9C8.65342 5.50195 8.33155 5.68141 8.14935 5.97622C7.96714 6.27104 7.95058 6.63918 8.10557 6.94917L9 8.73802V11.4728C8.97917 11.4498 8.95828 11.4265 8.93733 11.4028C8.13649 10.4952 7.22611 8.94382 6.99589 6.41142C6.94907 5.89636 6.51724 5.50198 6.00005 5.50195H2.00042C1.72828 5.50196 1.46744 5.61289 1.27889 5.80913C1.09034 6.00538 0.989923 6.26999 1.0008 6.54192L1.0009 6.54429ZM3.11061 7.50193C3.1434 7.72578 3.1855 7.97927 3.2394 8.2562C3.45436 9.36067 3.85207 10.8116 4.57826 12.2349C5.30349 13.6564 6.34114 15.0214 7.82542 16.004C9.11791 16.8596 10.7967 17.4572 13 17.5123V16.2099V15.5019C13 15.1553 13.1795 14.8335 13.4743 14.6512C13.7691 14.469 14 14.5019 14.4472 14.6075C15.1081 14.7635 16.4306 16.0019 17.0309 16.7522C17.2552 17.0326 17.4351 17.2911 17.571 17.5019H20.2373C19.3274 16.2099 18.5 15.0019 17.2929 13.709C16.9272 13.3433 16.9007 12.7591 17.2318 12.3617C18.4055 10.9532 19.2366 9.41436 19.7756 8.21657C19.8911 7.95987 19.9927 7.72004 20.0809 7.50195H17.7207C17.5884 7.86658 17.4001 8.3441 17.1548 8.86523C16.6363 9.96702 15.8011 11.401 14.6 12.3019C14.297 12.5291 13.8916 12.5657 13.5528 12.3963C13.214 12.2269 13 11.8806 13 11.5018V7.50195H10.618L10.8944 8.05474C10.9639 8.1936 11 8.34671 11 8.50195V13.5019C11 13.764 10.8973 14.0124 10.7191 14.1969C10.6687 14.249 10.6123 14.296 10.5505 14.3367C10.2699 14.5218 9.91504 14.5535 9.60608 14.421L9.60489 14.4205L9.60362 14.42L9.60084 14.4188L9.5943 14.4159L9.5774 14.4084C9.56688 14.4036 9.55418 14.3977 9.53938 14.3907L9.52881 14.3857C9.49005 14.3671 9.43878 14.3416 9.37666 14.3083C9.25247 14.2418 9.08448 14.1444 8.88617 14.0107C8.4897 13.7433 7.96999 13.3293 7.43766 12.726C6.80673 12.011 6.17046 11.0436 5.69813 9.76569C5.45154 9.09852 5.24964 8.34671 5.1165 7.50194L3.13307 7.50193L3.11061 7.50193Z"/>
</symbol></svg>