<?xml version="1.0" encoding="utf-8"?><svg viewBox="0 0 504 143" xmlns="http://www.w3.org/2000/svg" xmlns:xlink="http://www.w3.org/1999/xlink"><style>:root>svg{display:none}:root>svg:target{display:block}</style><svg fill="none" viewBox="0 0 491 135" id="arrow-dashed-1" xmlns="http://www.w3.org/2000/svg">
    <path d="M481.638 134.354a1.5 1.5 0 0 1-2.099.305l-10.818-8.077a1.499 1.499 0 1 1 1.795-2.404l9.615 7.18 7.18-9.616a1.5 1.5 0 1 1 2.404 1.795l-8.077 10.817Zm-3.157-3.803a1.5 1.5 0 0 1 2.964-.464l-2.964.464Zm1.55-8.65a1.5 1.5 0 1 1-2.947.557l2.947-.557Zm-4.129-5.298a1.5 1.5 0 0 1 2.933-.63l-2.933.63Zm1.161-8.253a1.501 1.501 0 0 1-2.91.73l2.91-.73Zm-4.495-5.218a1.5 1.5 0 0 1 2.888-.815l-2.888.815Zm.495-8.666a1.5 1.5 0 0 1-2.851.935l2.851-.935Zm-4.771-4.613a1.501 1.501 0 0 1 2.819-1.028l-2.819 1.028Zm-.129-8.56a1.5 1.5 0 0 1-2.767 1.16l2.767-1.16Zm-5.227-4.4a1.5 1.5 0 1 1 2.719-1.269l-2.719 1.268Zm-.864-8.446a1.5 1.5 0 0 1-2.647 1.413l2.647-1.413Zm-5.554-3.759a1.5 1.5 0 0 1 2.583-1.527l-2.583 1.527Zm-1.828-8.486a1.5 1.5 0 0 1-2.482 1.686l2.482-1.686Zm-5.901-3.1a1.5 1.5 0 1 1 2.398-1.802l-2.398 1.803Zm-2.727-8.16a1.5 1.5 0 1 1-2.27 1.962l2.27-1.962Zm-6.293-2.455a1.501 1.501 0 0 1 2.164-2.078l-2.164 2.078Zm-3.627-7.698a1.501 1.501 0 0 1-2.012 2.225l2.012-2.225Zm-6.569-1.676a1.5 1.5 0 1 1 1.888-2.331l-1.888 2.33Zm-4.614-7.225a1.5 1.5 0 0 1-1.718 2.46l1.718-2.46Zm-6.678-.814a1.5 1.5 0 1 1 1.587-2.546l-1.587 2.547Zm-5.476-6.617a1.5 1.5 0 1 1-1.409 2.648l1.409-2.648Zm-6.748-.026a1.5 1.5 0 1 1 1.278-2.715l-1.278 2.715Zm-6.164-5.938a1.5 1.5 0 0 1-1.107 2.788l1.107-2.788Zm-6.716.703a1.5 1.5 0 0 1 .984-2.834l-.984 2.834Zm-6.761-5.284a1.5 1.5 0 1 1-.827 2.883l.827-2.883Zm-6.588 1.35a1.5 1.5 0 0 1 .716-2.912l-.716 2.913ZM372.55 4.59a1.5 1.5 0 0 1-.576 2.944l.576-2.944Zm-6.412 1.901a1.5 1.5 0 0 1 .48-2.961l-.48 2.961Zm-7.559-4.095a1.5 1.5 0 1 1-.36 2.979l.36-2.979Zm-6.364 2.34a1.5 1.5 0 1 1 .276-2.986l-.276 2.987Zm-7.744-3.586a1.5 1.5 0 0 1-.173 2.995l.173-2.995Zm-6.195 2.72a1.5 1.5 0 1 1 .102-2.998l-.102 2.998ZM330.278.716a1.5 1.5 0 1 1-.014 3l.014-3Zm-5.995 3.032a1.5 1.5 0 0 1-.046-3l.046 3ZM316.106.974a1.5 1.5 0 1 1 .12 2.998l-.12-2.998Zm-5.872 3.29a1.5 1.5 0 1 1-.171-2.996l.171 2.996Zm-8.213-2.451a1.5 1.5 0 0 1 .233 2.99l-.233-2.99Zm-5.796 3.505a1.5 1.5 0 0 1-.276-2.987l.276 2.987Zm-8.299-2.172a1.5 1.5 0 0 1 .329 2.982l-.329-2.982Zm-5.641 3.678a1.5 1.5 0 0 1-.365-2.977l.365 2.977Zm-8.406-1.929a1.5 1.5 0 1 1 .41 2.972l-.41-2.972Zm-5.541 3.824a1.5 1.5 0 0 1-.44-2.968l.44 2.968Zm-8.407-1.735a1.5 1.5 0 0 1 .477 2.962l-.477-2.962Zm-5.483 3.947a1.5 1.5 0 0 1-.502-2.957l.502 2.957Zm-8.449-1.565a1.5 1.5 0 1 1 .532 2.952l-.532-2.952Zm-5.394 4.042a1.5 1.5 0 0 1-.553-2.948l.553 2.948Zm-8.478-1.428a1.5 1.5 0 0 1 .577 2.944l-.577-2.944Zm-5.343 4.123a1.5 1.5 0 0 1-.594-2.94l.594 2.94Zm-8.494-1.319a1.5 1.5 0 1 1 .613 2.937l-.613-2.937Zm-5.285 4.18a1.5 1.5 0 1 1-.625-2.933l.625 2.934Zm-8.514-1.233a1.5 1.5 0 0 1 .639 2.931l-.639-2.931Zm-5.266 4.227a1.5 1.5 0 0 1-.647-2.93l.647 2.93Zm-8.491-1.184a1.5 1.5 0 1 1 .656 2.928l-.656-2.928Zm-5.246 4.255a1.5 1.5 0 1 1-.66-2.927l.66 2.927Zm-8.538-1.144a1.5 1.5 0 1 1 .663 2.925l-.663-2.925Zm-5.201 4.256a1.5 1.5 0 1 1-.663-2.926l.663 2.926Zm-8.535-1.142a1.5 1.5 0 0 1 .662 2.926l-.662-2.926Zm-5.254 4.259a1.5 1.5 0 1 1-.657-2.927l.657 2.927Zm-8.457-1.188a1.5 1.5 0 0 1 .649 2.93l-.649-2.93Zm-5.295 4.236a1.5 1.5 0 0 1-.639-2.931l.639 2.93Zm-8.526-1.234a1.5 1.5 0 1 1 .622 2.935l-.622-2.935Zm-5.226 4.16a1.5 1.5 0 1 1-.607-2.938l.607 2.938Zm-8.569-1.327a1.5 1.5 0 1 1 .581 2.943l-.581-2.943Zm-5.353 4.091a1.5 1.5 0 1 1-.558-2.947l.558 2.947Zm-8.408-1.511a1.5 1.5 0 0 1 .521 2.954l-.521-2.954Zm-5.531 3.985a1.5 1.5 0 1 1-.486-2.96l.486 2.96Zm-8.323-1.744a1.5 1.5 0 1 1 .433 2.969l-.433-2.969Zm-5.647 3.805a1.5 1.5 0 1 1-.384-2.975l.384 2.975Zm-8.338-2.053a1.5 1.5 0 1 1 .306 2.985l-.306-2.985Zm-5.698 3.53a1.5 1.5 0 1 1-.236-2.99l.236 2.99Zm-8.294-2.506a1.5 1.5 0 0 1 .12 2.998l-.12-2.998Zm-5.85 3.137a1.5 1.5 0 1 1-.018-3l.017 3Zm-8.103-3.181a1.5 1.5 0 0 1-.16 2.996l.16-2.996Zm-6.15 2.522a1.5 1.5 0 1 1 .318-2.983l-.318 2.983Zm-7.583-4.182a1.5 1.5 0 0 1-.594 2.94l.594-2.94Zm-6.558 1.472a1.5 1.5 0 1 1 .849-2.878l-.849 2.878Zm-6.422-5.594a1.5 1.5 0 0 1-1.264 2.721l1.264-2.72Zm-6.781-.312a1.5 1.5 0 1 1 1.63-2.519l-1.63 2.52Zm-4.335-7.319a1.5 1.5 0 0 1-2.121 2.122l2.12-2.122Zm-6.19-2.692a1.5 1.5 0 1 1 2.444-1.739l-2.444 1.74Zm-1.31-8.382a1.5 1.5 0 0 1-2.744 1.21l2.745-1.21ZM2.13 14.275a1.5 1.5 0 1 1 2.88-.839l-2.88.84Zm1.256-8.438a1.5 1.5 0 0 1-2.969.43l2.969-.43Zm475.567 127.835a298.163 298.163 0 0 0-.471-3.121l2.964-.464c.163 1.044.322 2.095.475 3.155l-2.968.43Zm-1.868-11.214a241.134 241.134 0 0 0-1.182-5.855l2.933-.63c.418 1.946.817 3.922 1.196 5.928l-2.947.557Zm-2.931-13.378a207.743 207.743 0 0 0-1.585-5.948l2.888-.815a214.64 214.64 0 0 1 1.607 6.033l-2.91.73Zm-3.941-13.68a177.295 177.295 0 0 0-1.92-5.547l2.819-1.028a184.012 184.012 0 0 1 1.952 5.64l-2.851.936Zm-4.816-12.947a155.371 155.371 0 0 0-2.46-5.56l2.719-1.269a158.258 158.258 0 0 1 2.508 5.669l-2.767 1.16Zm-5.971-12.593a134.618 134.618 0 0 0-2.907-5.172l2.583-1.527a139.452 139.452 0 0 1 2.971 5.286l-2.647 1.413Zm-7.217-11.972a121.686 121.686 0 0 0-3.419-4.785l2.398-1.803a125.127 125.127 0 0 1 3.503 4.902l-2.482 1.686Zm-8.416-10.984a113.28 113.28 0 0 0-4.023-4.417l2.164-2.078a116.425 116.425 0 0 1 4.129 4.533l-2.27 1.962Zm-9.662-9.89a111.075 111.075 0 0 0-4.557-3.901l1.888-2.331a113.74 113.74 0 0 1 4.681 4.007l-2.012 2.225Zm-10.889-8.667a112.87 112.87 0 0 0-4.96-3.273l1.587-2.546a116.822 116.822 0 0 1 5.091 3.36l-1.718 2.46Zm-11.845-7.242a121.71 121.71 0 0 0-5.339-2.674l1.278-2.715c1.847.87 3.671 1.783 5.47 2.741l-1.409 2.648Zm-12.61-5.824a135.983 135.983 0 0 0-5.609-2.085l.984-2.834c1.932.67 3.843 1.38 5.732 2.13l-1.107 2.789Zm-13.197-4.486a156.068 156.068 0 0 0-5.761-1.532l.716-2.913c1.975.485 3.933 1.005 5.872 1.562l-.827 2.883Zm-13.615-3.262a182.017 182.017 0 0 0-5.836-1.043l.48-2.961c1.993.323 3.97.676 5.932 1.06l-.576 2.944Zm-13.755-2.16a214.04 214.04 0 0 0-6.004-.637l.276-2.987c2.042.188 4.072.403 6.088.646l-.36 2.979Zm-13.921-1.229a252.835 252.835 0 0 0-6.022-.275l.102-2.998c2.042.069 4.073.162 6.093.278l-.173 2.995Zm-14.034-.428a298.84 298.84 0 0 0-5.981.032l-.046-3a301.92 301.92 0 0 1 6.041-.032l-.014 3Zm-14.038.256c-1.99.08-3.987.177-5.992.292l-.171-2.996c2.021-.115 4.036-.213 6.043-.294l.12 2.998Zm-13.972.832c-2.004.156-4.013.328-6.029.514l-.276-2.987a420.08 420.08 0 0 1 6.072-.518l.233 2.99Zm-13.999 1.324c-1.986.22-3.976.452-5.97.696l-.365-2.977a496.89 496.89 0 0 1 6.006-.7l.329 2.981Zm-13.966 1.739c-1.981.273-3.964.557-5.951.852l-.44-2.968c1.996-.296 3.99-.581 5.981-.856l.41 2.972Zm-13.881 2.079c-1.985.32-3.972.648-5.96.986l-.502-2.958c1.996-.339 3.992-.67 5.985-.99l.477 2.962Zm-13.877 2.372c-1.975.356-3.95.72-5.926 1.09l-.553-2.948a870.26 870.26 0 0 1 5.947-1.094l.532 2.952Zm-13.827 2.606c-1.974.388-3.948.78-5.92 1.179l-.594-2.94c1.978-.4 3.957-.794 5.937-1.183l.577 2.944Zm-13.801 2.797c-1.968.41-3.934.826-5.898 1.244l-.625-2.934c1.968-.42 3.938-.835 5.91-1.246l.613 2.936Zm-13.773 2.941c-1.972.43-3.94.862-5.905 1.296l-.647-2.93a2065.3 2065.3 0 0 1 5.913-1.297l.639 2.931Zm-13.74 3.04c-1.972.441-3.94.884-5.902 1.327l-.66-2.927c1.963-.443 3.932-.886 5.906-1.328l.656 2.928Zm-13.777 3.108c-1.961.445-3.915.889-5.864 1.33l-.663-2.925 5.864-1.33.663 2.925Zm-13.737 3.115c-1.98.447-3.952.892-5.916 1.333l-.657-2.927c1.962-.44 3.933-.885 5.911-1.332l.662 2.926ZM150.152 33c-1.991.44-3.973.876-5.944 1.306l-.639-2.931c1.968-.43 3.946-.864 5.934-1.305l.649 2.93Zm-13.848 3.007c-1.961.416-3.91.825-5.848 1.225l-.607-2.938c1.932-.399 3.876-.807 5.833-1.222l.622 2.935Zm-13.836 2.841c-1.993.394-3.971.777-5.934 1.148l-.558-2.947c1.955-.37 3.925-.752 5.911-1.144l.581 2.943Zm-13.821 2.591c-2.036.359-4.054.703-6.052 1.031l-.486-2.96c1.986-.326 3.992-.669 6.017-1.025l.521 2.954Zm-13.942 2.256c-2.05.299-4.077.578-6.08.836l-.384-2.975c1.986-.256 3.997-.533 6.031-.83l.433 2.969Zm-14.112 1.768c-2.03.208-4.031.39-6.004.545l-.236-2.99c1.949-.154 3.927-.334 5.934-.54l.306 2.985ZM66.415 46.5c-2.025.08-4.016.128-5.97.14l-.018-3c1.918-.012 3.875-.058 5.868-.138l.12 2.998Zm-14.232-.046a112.739 112.739 0 0 1-5.991-.474l.318-2.983c1.893.202 3.837.355 5.832.461l-.16 2.996Zm-14.168-1.715a70.162 70.162 0 0 1-5.964-1.47l.849-2.877a67.186 67.186 0 0 0 5.709 1.406l-.594 2.94Zm-13.65-4.342a45.168 45.168 0 0 1-5.517-3.033l1.63-2.519a42.16 42.16 0 0 0 5.151 2.831l-1.264 2.721Zm-11.973-8.23a37.67 37.67 0 0 1-4.07-4.814l2.445-1.739a34.677 34.677 0 0 0 3.746 4.431l-2.121 2.122ZM4.269 20.182a47.624 47.624 0 0 1-2.14-5.907l2.88-.839c.571 1.96 1.24 3.803 2.005 5.535l-2.745 1.21ZM.416 6.268a70.704 70.704 0 0 1-.395-3.263l2.986-.293c.104 1.067.23 2.109.378 3.125l-2.969.43Z" fill="#D8E2EE"/>
</svg><svg fill="none" viewBox="0 0 504 143" id="arrow-dashed-2" xmlns="http://www.w3.org/2000/svg">
    <path d="M3.5 141.677a1.5 1.5 0 0 0 1.818 1.094l13.102-3.255a1.5 1.5 0 1 0-.724-2.911L6.05 139.498l-2.893-11.646a1.5 1.5 0 1 0-2.911.723L3.5 141.677Zm4.369-2.226a1.5 1.5 0 1 0-2.536-1.602l2.536 1.602Zm2.068-8.433a1.5 1.5 0 0 0 2.436 1.751l-2.436-1.751Zm5.968-2.931a1.5 1.5 0 1 0-2.352-1.862l2.352 1.862Zm2.933-8.106a1.5 1.5 0 0 0 2.224 2.014l-2.224-2.014Zm6.348-2.31a1.5 1.5 0 1 0-2.115-2.126l2.115 2.126Zm3.79-7.603a1.5 1.5 0 0 0 1.96 2.271l-1.96-2.271Zm6.62-1.533a1.499 1.499 0 1 0-1.833-2.375l1.833 2.375Zm4.78-7.101a1.5 1.5 0 0 0 1.654 2.503l-1.653-2.503Zm6.7-.636a1.5 1.5 0 1 0-1.514-2.59l1.515 2.59Zm5.675-6.454a1.5 1.5 0 1 0 1.326 2.691l-1.326-2.691Zm6.732.2a1.5 1.5 0 0 0-1.185-2.756l1.185 2.756Zm6.385-5.716a1.5 1.5 0 1 0 1 2.828l-1-2.828Zm6.686.966a1.5 1.5 0 0 0-.868-2.872l.868 2.872Zm6.966-4.987a1.5 1.5 0 1 0 .698 2.918l-.698-2.918Zm6.533 1.647a1.5 1.5 0 1 0-.58-2.943l.58 2.943Zm7.468-4.313a1.5 1.5 0 0 0 .43 2.97l-.43-2.97Zm6.32 2.221a1.5 1.5 0 1 0-.326-2.982l.327 2.982Zm7.794-3.695a1.5 1.5 0 1 0 .2 2.993l-.2-2.993Zm6.178 2.683a1.5 1.5 0 1 0-.113-2.998l.113 2.998Zm7.962-3.156a1.5 1.5 0 1 0 .006 3l-.006-3Zm6.064 3.062a1.5 1.5 0 1 0 .067-2.999l-.067 3Zm8.108-2.7a1.5 1.5 0 1 0-.155 2.997l.155-2.996Zm5.842 3.368a1.5 1.5 0 1 0 .215-2.992l-.215 2.992Zm8.329-2.307a1.5 1.5 0 0 0-.288 2.986l.288-2.986Zm5.645 3.61a1.5 1.5 0 1 0 .337-2.982l-.337 2.981Zm8.373-1.988a1.5 1.5 0 0 0-.398 2.973l.398-2.973Zm5.597 3.817a1.5 1.5 0 0 0 .439-2.968l-.439 2.968Zm8.375-1.728a1.5 1.5 0 0 0-.487 2.96l.487-2.96Zm5.464 3.973a1.5 1.5 0 0 0 .519-2.955l-.519 2.955Zm8.481-1.5a1.5 1.5 0 1 0-.559 2.948l.559-2.948Zm5.335 4.092a1.5 1.5 0 0 0 .585-2.942l-.585 2.942Zm8.504-1.325a1.5 1.5 0 0 0-.616 2.936l.616-2.936Zm5.296 4.197a1.5 1.5 0 1 0 .635-2.932l-.635 2.932Zm8.493-1.195a1.5 1.5 0 0 0-.659 2.927l.659-2.927Zm5.228 4.268a1.5 1.5 0 0 0 .674-2.923l-.674 2.923Zm8.535-1.087a1.5 1.5 0 0 0-.69 2.92l.69-2.92Zm5.177 4.317a1.499 1.499 0 1 0 .7-2.917l-.7 2.917Zm8.533-1.021a1.5 1.5 0 1 0-.711 2.914l.711-2.914Zm5.156 4.35a1.5 1.5 0 1 0 .716-2.913l-.716 2.913Zm8.547-.984a1.5 1.5 0 0 0-.72 2.913l.72-2.913Zm5.14 4.361a1.5 1.5 0 0 0 .72-2.912l-.72 2.912Zm8.534-.983a1.5 1.5 0 0 0-.718 2.913l.718-2.913Zm5.168 4.359a1.5 1.5 0 1 0 .714-2.913l-.714 2.913Zm8.524-1.013a1.5 1.5 0 0 0-.705 2.916l.705-2.916Zm5.158 4.323a1.499 1.499 0 1 0 .695-2.918l-.695 2.918Zm8.565-1.064a1.5 1.5 0 1 0-.679 2.922l.679-2.922Zm5.202 4.274a1.5 1.5 0 0 0 .664-2.926l-.664 2.926Zm8.5-1.178a1.5 1.5 0 1 0-.641 2.93l.641-2.93Zm5.312 4.209a1.5 1.5 0 1 0 .619-2.935l-.619 2.935Zm8.46-1.326a1.5 1.5 0 0 0-.587 2.943l.587-2.943Zm5.353 4.097a1.5 1.5 0 1 0 .558-2.948l-.558 2.948Zm8.506-1.505a1.5 1.5 0 1 0-.513 2.956l.513-2.956Zm5.417 3.947a1.5 1.5 0 0 0 .476-2.962l-.476 2.962Zm8.444-1.761a1.5 1.5 0 1 0-.417 2.971l.417-2.971Zm5.612 3.768a1.5 1.5 0 0 0 .368-2.978l-.368 2.978Zm8.244-2.101a1.5 1.5 0 0 0-.294 2.986l.294-2.986Zm5.847 3.525a1.5 1.5 0 1 0 .229-2.991l-.229 2.991Zm8.182-2.507a1.499 1.499 0 1 0-.133 2.997l.133-2.997Zm5.938 3.185a1.5 1.5 0 0 0 .051-2.999l-.051 2.999Zm8.085-3.026a1.5 1.5 0 1 0 .074 2.999l-.074-2.999Zm6.059 2.749a1.5 1.5 0 0 0-.178-2.995l.178 2.995Zm7.866-3.687a1.5 1.5 0 0 0 .339 2.981l-.339-2.981Zm6.335 2.163a1.5 1.5 0 1 0-.473-2.962l.473 2.962Zm7.364-4.483a1.5 1.5 0 0 0 .674 2.924l-.674-2.924Zm6.581 1.387a1.5 1.5 0 0 0-.839-2.88l.839 2.88Zm6.662-5.404a1.5 1.5 0 0 0 1.077 2.8l-1.077-2.8Zm6.729.402a1.5 1.5 0 1 0-1.267-2.719l1.267 2.719Zm5.7-6.384a1.5 1.5 0 1 0 1.525 2.583l-1.525-2.583Zm6.698-.745a1.5 1.5 0 0 0-1.719-2.459l1.719 2.459Zm4.485-7.295a1.5 1.5 0 0 0 1.964 2.268l-1.964-2.268Zm6.438-1.92a1.5 1.5 0 1 0-2.133-2.11l2.133 2.11Zm3.152-8.015a1.5 1.5 0 0 0 2.331 1.888l-2.331-1.888Zm5.975-2.944a1.5 1.5 0 1 0-2.456-1.723l2.456 1.724Zm1.896-8.552a1.5 1.5 0 1 0 2.597 1.502l-2.597-1.502Zm5.407-3.697a1.5 1.5 0 0 0-2.678-1.352l2.678 1.352Zm.666-8.62a1.5 1.5 0 1 0 2.767 1.158l-2.767-1.158Zm5.008-4.582a1.5 1.5 0 1 0-2.82-1.025l2.82 1.025Zm-.373-8.404a1.5 1.5 0 0 0 2.872.867l-2.872-.867Zm4.551-5.121a1.5 1.5 0 1 0-2.903-.755l2.903.755Zm-1.078-8.51a1.5 1.5 0 1 0 2.935.623l-2.935-.622Zm4.076-5.197a1.5 1.5 0 1 0-2.952-.534l2.952.534Zm-1.658-8.55a1.5 1.5 0 1 0 2.97.424l-2.97-.424Zm3.774-5.785a1.5 1.5 0 0 0-2.98-.347l2.98.347Zm-2.202-7.994a1.5 1.5 0 1 0 2.989.261l-2.989-.261Zm3.452-5.76a1.5 1.5 0 1 0-2.993-.2l2.993.2Zm-2.55-8.453a1.5 1.5 0 0 0 2.998.123l-2.998-.123ZM6.241 142.09c.537-.891 1.08-1.771 1.628-2.638l-2.536-1.602c-.56.885-1.114 1.783-1.662 2.693l2.57 1.547Zm6.132-9.32a127.446 127.446 0 0 1 3.532-4.682l-2.352-1.862a129.855 129.855 0 0 0-3.616 4.793l2.436 1.751Zm8.689-10.774a115.47 115.47 0 0 1 4.124-4.324l-2.115-2.126a117.902 117.902 0 0 0-4.233 4.436l2.224 2.014Zm9.875-9.656a109.121 109.121 0 0 1 4.659-3.804l-1.833-2.375a111.633 111.633 0 0 0-4.787 3.908l1.96 2.271Zm11.093-8.402a110.01 110.01 0 0 1 5.047-3.139l-1.515-2.59c-1.752 1.026-3.48 2.1-5.185 3.226l1.653 2.503Zm12.047-6.902c1.78-.877 3.582-1.707 5.406-2.49l-1.185-2.757a117.98 117.98 0 0 0-5.547 2.556l1.326 2.691Zm12.792-5.379c1.874-.663 3.77-1.283 5.685-1.862l-.868-2.872a130.45 130.45 0 0 0-5.818 1.906l1 2.828Zm13.35-3.931c1.926-.462 3.871-.884 5.834-1.27l-.58-2.944c-2 .394-3.986.825-5.953 1.296l.698 2.918ZM93.95 85.11c1.948-.282 3.912-.53 5.89-.748l-.326-2.982c-2.013.221-4.01.474-5.994.761l.43 2.97Zm13.884-1.45c1.979-.132 3.972-.235 5.978-.31l-.113-2.998a209.4 209.4 0 0 0-6.065.315l.2 2.993Zm13.946-.466c2.008-.004 4.028.017 6.058.062l.067-2.999a250.219 250.219 0 0 0-6.131-.063l.006 3Zm14.011.359c1.99.103 3.989.227 5.997.371l.215-2.992a301.394 301.394 0 0 0-6.057-.375l-.155 2.996Zm14.038 1.05c1.97.19 3.948.398 5.933.623l.337-2.98c-2-.227-3.995-.437-5.982-.629l-.288 2.986Zm13.908 1.61c1.993.266 3.991.547 5.995.843l.439-2.968c-2.018-.297-4.03-.58-6.036-.85l-.398 2.974Zm13.883 2.075c1.979.325 3.963.663 5.951 1.013l.519-2.955a542.94 542.94 0 0 0-5.983-1.018l-.487 2.96Zm13.873 2.46c1.961.373 3.926.754 5.894 1.145l.585-2.942c-1.977-.393-3.95-.776-5.92-1.15l-.559 2.948Zm13.782 2.756c1.968.413 3.939.833 5.912 1.261l.635-2.932a873.68 873.68 0 0 0-5.931-1.265l-.616 2.936Zm13.746 2.993c1.961.441 3.924.889 5.887 1.341l.674-2.923c-1.968-.454-3.936-.902-5.902-1.345l-.659 2.927Zm13.732 3.173c1.955.463 3.911.929 5.867 1.398l.7-2.917c-1.959-.47-3.918-.937-5.877-1.4l-.69 2.92Zm13.689 3.291c1.957.477 3.913.956 5.867 1.436l.716-2.913a2793.5 2793.5 0 0 0-5.872-1.437l-.711 2.914Zm13.694 3.365 5.86 1.448.72-2.912-5.86-1.449-.72 2.913Zm13.676 3.378c1.965.484 3.927.967 5.886 1.446l.714-2.913c-1.958-.48-3.919-.962-5.882-1.446l-.718 2.913Zm13.705 3.349c1.958.473 3.913.943 5.863 1.407l.695-2.918c-1.947-.464-3.898-.932-5.853-1.405l-.705 2.916Zm13.749 3.265c1.965.457 3.926.908 5.881 1.352l.664-2.926c-1.95-.443-3.905-.892-5.866-1.348l-.679 2.922Zm13.74 3.104a831.2 831.2 0 0 0 5.953 1.279l.619-2.935c-1.97-.416-3.947-.841-5.931-1.274l-.641 2.93Zm13.826 2.896c1.988.396 3.968.781 5.94 1.154l.558-2.948a589.422 589.422 0 0 1-5.911-1.149l-.587 2.943Zm13.933 2.605c1.986.344 3.963.675 5.93.991l.476-2.962a489.284 489.284 0 0 1-5.893-.985l-.513 2.956Zm13.957 2.201c2.021.284 4.031.55 6.029.797l.368-2.978a352.58 352.58 0 0 1-5.98-.79l-.417 2.971Zm13.979 1.682c2.061.203 4.108.383 6.141.539l.229-2.991a281.17 281.17 0 0 1-6.076-.534l-.294 2.986Zm14.19 1.029c2.04.091 4.064.154 6.071.188l.051-2.999a218.17 218.17 0 0 1-5.989-.186l-.133 2.997Zm14.23.161c2.014-.05 4.01-.133 5.985-.25l-.178-2.995c-1.939.115-3.9.197-5.881.246l.074 2.999Zm14.19-.956c2.023-.231 4.022-.502 5.996-.818l-.473-2.962a130.72 130.72 0 0 1-5.862.799l.339 2.981Zm14.034-2.377c1.998-.461 3.968-.972 5.907-1.537l-.839-2.88a104.422 104.422 0 0 1-5.742 1.493l.674 2.924Zm13.646-4.141a89.413 89.413 0 0 0 5.652-2.398l-1.267-2.719a86.663 86.663 0 0 1-5.462 2.317l1.077 2.8Zm12.877-6.199a80.3 80.3 0 0 0 5.173-3.328l-1.719-2.459a76.992 76.992 0 0 1-4.979 3.204l1.525 2.583Zm11.622-8.355a79.85 79.85 0 0 0 4.474-4.188l-2.133-2.11a76.7 76.7 0 0 1-4.305 4.03l1.964 2.268Zm9.957-10.315a87.6 87.6 0 0 0 3.644-4.832l-2.456-1.723a84.577 84.577 0 0 1-3.519 4.667l2.331 1.888Zm8.137-11.882c.97-1.677 1.906-3.41 2.81-5.199l-2.678-1.352a102.308 102.308 0 0 1-2.729 5.05l2.597 1.5Zm6.243-12.66a127.98 127.98 0 0 0 2.241-5.742l-2.82-1.024a124.774 124.774 0 0 1-2.188 5.607l2.767 1.158Zm4.74-13.278a158.965 158.965 0 0 0 1.679-5.988l-2.903-.755a155.93 155.93 0 0 1-1.648 5.876l2.872.867Zm3.536-13.875c.403-1.901.783-3.84 1.141-5.82l-2.952-.534c-.353 1.95-.728 3.86-1.124 5.732l2.935.622Zm2.453-13.946c.29-2.031.558-4.1.804-6.209l-2.98-.347a241.995 241.995 0 0 1-.794 6.132l2.97.424Zm1.591-13.942c.172-1.975.327-3.982.463-6.021l-2.993-.2a291.4 291.4 0 0 1-.459 5.96l2.989.261Zm.911-14.35c.043-1.064.082-2.135.116-3.214L500.177.41c-.034 1.07-.073 2.133-.116 3.186l2.998.123Z" fill="#D8E2EE"/>
</svg><svg fill="none" viewBox="0 0 20 17" id="arrow-right" xmlns="http://www.w3.org/2000/svg">
    <path d="M0 7.324v2h16.485l-5.832 5.552 1.378 1.448 7.658-7.288a1 1 0 0 0 .001-1.448L12.032.283l-1.38 1.447 5.864 5.594H0Z" fill="#000" fill-opacity=".8"/>
</svg><svg fill="none" viewBox="0 0 36 37" id="arrow-up-blue" xmlns="http://www.w3.org/2000/svg">
    <path fill-rule="evenodd" clip-rule="evenodd" d="M24.691 9.305H11.813v-3h16.5a1.5 1.5 0 0 1 1.5 1.5v16.5h-3V11.426l-18.44 18.44-2.121-2.122 18.44-18.44Z" fill="#1076FF"/>
</svg><svg fill="none" viewBox="0 0 24 25" id="linkedin-icon" xmlns="http://www.w3.org/2000/svg">
    <path clip-rule="evenodd" d="M5 4.197h2.4v2.4H5v-2.4Zm2.4 4.32v-.72H5v12.2h2.4V8.517Zm12 4.08c0-2.64-2.16-4.8-4.8-4.8-.84 0-1.68.24-2.4.72v-.72H9.8v12.2h2.4v-7.4c0-1.32 1.08-2.4 2.4-2.4 1.32 0 2.4 1.08 2.4 2.4v7.4h2.4v-7.4Z"/>
</svg><svg fill="none" viewBox="0 0 24 25" id="map-icon" xmlns="http://www.w3.org/2000/svg">
    <g opacity=".72">
        <path clip-rule="evenodd" d="M12 2.502a9 9 0 0 0-9 9c0 3.387 1.964 6.253 3.918 8.207.99.99 2.014 1.784 2.867 2.336.426.275.821.498 1.16.657.168.08.334.148.492.2.14.045.344.1.563.1.22 0 .423-.055.563-.1.158-.052.324-.12.493-.2a10.09 10.09 0 0 0 1.16-.657 17.951 17.951 0 0 0 2.866-2.336C19.036 17.755 21 14.89 21 11.502a9 9 0 0 0-9-9Zm-7 9a7 7 0 1 1 14 0c0 2.613-1.536 4.997-3.332 6.793a15.95 15.95 0 0 1-2.54 2.07c-.37.24-.686.416-.922.527-.085.04-.154.068-.206.088a2.824 2.824 0 0 1-.206-.088 8.144 8.144 0 0 1-.923-.526 15.952 15.952 0 0 1-2.539-2.071C6.536 16.499 5 14.115 5 11.502Zm6.907 9.508.004-.001-.004.001Zm.186 0-.004-.001h.002l.002.001Z"/>
        <path d="M14 11.197a2 2 0 1 0-4 0 2 2 0 0 0 4 0Z"/>
    </g>
</svg><svg fill="none" viewBox="0 0 42 43" id="quotes" xmlns="http://www.w3.org/2000/svg">
    <path d="m12.437 34.064-3.997.145 6.013-13.56-6.662.242-.393-10.826 10.827-.393.392 10.826-6.18 13.566ZM28.427 33.484l-3.998.145 6.013-13.56-6.662.242-.392-10.827 10.826-.392.392 10.826-6.18 13.566Z" fill="#000" fill-opacity=".8"/>
</svg><svg fill="none" viewBox="0 0 22 19" id="telegram-icon" xmlns="http://www.w3.org/2000/svg">
    <path clip-rule="evenodd" d="M21.135.23a1 1 0 0 1 .345.974l-3.5 17a1 1 0 0 1-1.553.617l-4.374-3.061-2.413 2.01a1 1 0 0 1-1.589-.452l-1.847-5.541-5.046-1.835a1 1 0 0 1-.046-1.862l19-8a1 1 0 0 1 1.023.15ZM8.21 11.472l.596 1.788.217-.976a1 1 0 0 1 .241-.461l1.774-1.922-2.828 1.571Zm2.401 2.884.748-.623a1 1 0 0 1 1.213-.051l3.754 2.627 2.81-13.65L4.24 8.935l2.674.972 8.601-4.778a1 1 0 0 1 1.22 1.552l-5.816 6.302-.306 1.375Z"/>
</svg><svg fill="none" viewBox="0 0 24 25" id="vk-icon" xmlns="http://www.w3.org/2000/svg">
    <path clip-rule="evenodd" d="m1 6.544.001.004v.01l.002.035.008.12a17.608 17.608 0 0 0 .265 1.925c.238 1.224.684 2.867 1.52 4.506.838 1.64 2.082 3.307 3.925 4.528 1.855 1.227 4.255 1.962 7.322 1.829a1 1 0 0 0 .957-1v-1.029a6.966 6.966 0 0 1 1.103 1.472l.004.008c.17.337.515.55.893.55h5a1 1 0 0 0 .858-1.515l-.443-.741c-.542-.91-1.75-2.638-3.088-4.312A20.855 20.855 0 0 0 21.6 9.037c.295-.653.508-1.21.648-1.607a14.811 14.811 0 0 0 .199-.6l.01-.037.004-.01.001-.005.014-.054-.014.053a1 1 0 0 0-.961-1.275H17a1 1 0 0 0-.961.725l-.002.004-.006.023a11.749 11.749 0 0 1-.16.483c-.117.329-.293.782-.526 1.277-.106.226-.221.453-.345.678v-2.19a1 1 0 0 0-1-1H9a1 1 0 0 0-.894 1.447L9 8.738v2.735a7.794 7.794 0 0 1-.063-.07c-.8-.908-1.71-2.46-1.941-4.992A1 1 0 0 0 6 5.502H2a1.001 1.001 0 0 0-1 1.04v.002Zm2.11.958c.033.224.076.477.13.754.214 1.105.612 2.556 1.338 3.979.725 1.421 1.763 2.786 3.247 3.769 1.293.856 2.972 1.453 5.175 1.508v-2.01a1 1 0 0 1 .474-.85c.295-.183.526-.15.973-.044.661.155 1.984 1.394 2.584 2.144.224.28.404.54.54.75h2.666c-.91-1.292-1.737-2.5-2.944-3.793a1 1 0 0 1-.061-1.347c1.174-1.409 2.005-2.948 2.544-4.145.115-.257.217-.497.305-.715h-2.36c-.133.365-.32.842-.566 1.363-.519 1.102-1.354 2.536-2.555 3.437a1 1 0 0 1-1.6-.8v-4h-2.382l.276.553a1 1 0 0 1 .106.447v5a1 1 0 0 1-1.394.919h-.001l-.001-.001-.003-.001-.007-.003-.017-.008a3.094 3.094 0 0 1-.038-.017l-.01-.005a5.682 5.682 0 0 1-.643-.375 7.662 7.662 0 0 1-1.448-1.285c-.631-.715-1.268-1.682-1.74-2.96a11.822 11.822 0 0 1-.582-2.264H3.112Z"/>
</svg></svg>