<svg width="48" height="18" viewBox="0 0 48 18" fill="none" xmlns="http://www.w3.org/2000/svg">
<path fill-rule="evenodd" clip-rule="evenodd" d="M47.4878 0.5C47.2362 1.0272 47.0211 1.49178 46.7937 1.95043C45.7463 4.05669 44.7083 6.16716 43.6392 8.26199C43.3765 8.7765 43.368 9.20726 43.6337 9.72938C44.8426 12.1031 46.0167 14.4945 47.2009 16.88C47.2906 17.0619 47.368 17.2515 47.4814 17.5028H0.635742V0.5H47.4878Z" fill="#AD475C"/>
<path d="M9.3841 13.6863L7.24247 10.7123H6.82458V13.6863H4.46094V4.32812H8.15658C9.17518 4.32812 9.99352 4.57926 10.6116 5.08152C11.2384 5.58382 11.5649 6.35924 11.591 7.40784C11.591 9.06447 10.986 10.0866 9.77584 10.4743L12.2962 13.6863H9.3841ZM6.82458 8.67676H8.19573C8.65715 8.67676 8.98364 8.50049 9.17518 8.14802C9.36667 7.78675 9.36667 7.42986 9.17518 7.07739C8.98364 6.71613 8.65715 6.53547 8.19573 6.53547H6.82458V8.67676Z" fill="white"/>
<path d="M19.6809 7.18315C19.6722 7.4387 19.5852 7.71627 19.4198 8.01586C19.2631 8.31545 19.0324 8.54457 18.7276 8.70316C19.2935 8.99395 19.6722 9.3817 19.8638 9.86632C20.0553 10.351 20.1119 10.818 20.0335 11.2674C19.7811 12.88 18.6841 13.6863 16.7427 13.6863H12.9688V4.32812H16.6774C17.5828 4.32812 18.3141 4.58807 18.8713 5.10796C19.4372 5.61906 19.707 6.31078 19.6809 7.18315ZM15.3193 7.98942H16.6774C17.0344 7.98942 17.2868 7.85285 17.4348 7.57966C17.5916 7.29771 17.5959 7.02014 17.4479 6.74694C17.2999 6.46499 17.0431 6.324 16.6774 6.324H15.3193V7.98942ZM15.3193 11.6111H16.6774C17.1214 11.6111 17.4305 11.4525 17.6046 11.1352C17.7874 10.8092 17.7874 10.4876 17.6046 10.1703C17.4218 9.8531 17.1127 9.69451 16.6774 9.69451H15.3193V11.6111Z" fill="white"/>
<path d="M20.7783 12.4413C20.7783 12.0801 20.9046 11.7717 21.1571 11.5161C21.4095 11.2606 21.7142 11.1328 22.0712 11.1328C22.4281 11.1328 22.7328 11.2606 22.9853 11.5161C23.2464 11.7717 23.377 12.0801 23.377 12.4413C23.377 12.8115 23.2464 13.1287 22.9853 13.393C22.7328 13.6486 22.4281 13.7763 22.0712 13.7763C21.7142 13.7763 21.4095 13.6486 21.1571 13.393C20.9046 13.1287 20.7783 12.8115 20.7783 12.4413Z" fill="#AD475C"/>
<path d="M29.4251 13.6863L27.2834 10.7123H26.8656V13.6863H24.502V4.32812H28.1976C29.2162 4.32812 30.0345 4.57926 30.6526 5.08152C31.2794 5.58382 31.6059 6.35924 31.632 7.40784C31.632 9.06447 31.027 10.0866 29.8169 10.4743L32.3372 13.6863H29.4251ZM26.8656 8.67676H28.2367C28.6982 8.67676 29.0246 8.50049 29.2161 8.14802C29.4077 7.78675 29.4077 7.42986 29.2161 7.07739C29.0246 6.71613 28.6982 6.53547 28.2367 6.53547H26.8656V8.67676Z" fill="white"/>
<path d="M35.3207 4.32812V10.5537C35.3207 10.8357 35.4121 11.0779 35.5949 11.2806C35.7778 11.4745 35.9954 11.5934 36.2479 11.6375C36.509 11.6816 36.7702 11.6816 37.0314 11.6375C37.2926 11.5934 37.5145 11.4745 37.6974 11.2806C37.8802 11.0779 37.9716 10.8357 37.9716 10.5537V4.32812H40.3353V10.5537C40.3353 11.0295 40.2482 11.4657 40.0741 11.8622C39.9087 12.2499 39.6823 12.5716 39.395 12.8271C39.1078 13.0827 38.7769 13.3029 38.4026 13.488C38.0369 13.6642 37.6495 13.77 37.2403 13.8052C36.8399 13.8404 36.435 13.8404 36.0259 13.8052C35.6167 13.77 35.2249 13.6642 34.8506 13.488C34.4849 13.3029 34.1585 13.0827 33.8711 12.8271C33.5926 12.5716 33.3706 12.2499 33.2051 11.8622C33.0398 11.4657 32.957 11.0295 32.957 10.5537V4.32812H35.3207Z" fill="white"/>
</svg>
